<?xml version="1.0" encoding="UTF-8"?>
<svg id="Layer_1" data-name="Layer 1" xmlns="http://www.w3.org/2000/svg" viewBox="0 0 787.38 1009.13">
  <defs>
    <style>
      .cls-1 {
        fill: #fff;
      }
    </style>
  </defs>
  <path class="cls-1" d="m33.82,362.52c-.05.14-.27.86-.5,1.58.19.16.39.32.58.48,1.66-1.64,3.41-3.21,4.97-4.94,5.79-6.41,11.08-13.14,14.83-21.05,2.33-4.9,6.03-5.61,10.49-2.89,2.09,1.27,2.62,3,1.4,5-1.16,1.91-2.53,3.73-4.03,5.38-4.72,5.17-8.42,10.9-10.95,17.47-3.43,8.9-10.79,14.32-18.67,18.66-4.83,2.66-10.61,2.32-16.06.89-.84-.22-1.83-.61-2.35-1.25-4.41-5.45-9.59-10.2-10.91-17.84-1.32-7.62-3.2-15.13-2.44-22.91.66-6.77,1.74-13.5,2.63-20.24,1.78-13.43,5.54-26.24,13.24-37.49,5.06-7.39,11.03-14.14,16.43-21.31,5.63-7.47,12.96-13.11,20.72-17.88,7.41-4.56,15.34-5.54,23.85-.57,7.09,4.14,12.27,10.18,18.38,15.24,7.81,6.48,16.44,10.72,26.33,12.82,7.28,1.54,14.46,3.52,21.68,5.36,1.82.46,3.72.89,5.37,1.74,8.35,4.33,16.95,4.34,25.94,2.38,4.94-1.08,10.12-.23,13.82,3.53,5.04,5.11,11.24,6.53,17.58,5.09,9.96-2.26,19.39-.91,28.89,1.79,5,1.42,10.15,2.44,14.99,4.29,3.97,1.51,7.71,3.76,11.29,6.08,5.73,3.72,11.76,4.77,18.23,2.77,3.87-1.2,7.77-1.98,11.6-.54,2.44.92,5.11,2.2,6.75,4.11,4.08,4.75,9.29,7.38,15.16,7.92,8.84.81,17.22,3.43,25.8,5.22,4.94,1.03,9.35,2.9,13.53,5.69,5.57,3.72,13.56-.24,13.95-6.98.1-1.73-.81-4.07-2.08-5.23-7.44-6.78-6.41-15.2-2.35-22.34,3.78-6.66,3.44-13.94,2.7-21.04-.66-6.26-6.87-10.72-13.21-10.58-4.66.11-9.32.21-13.97.54-1.84.13-3.7.71-5.45,1.35-5.79,2.1-10.74-.12-12.4-6.07-1.44-5.15-4.48-8.57-9.53-10.04-2.12-.62-4.42-.73-6.64-.84-5.88-.3-10.19-3.45-11.94-9.15-1.97-6.39-6.51-9.8-12.82-10.84-7.63-1.26-12.89-5.42-16.36-12.18-3.83-7.44-7.17-15.05-9.31-23.19-.79-2.98-2.49-5.75-3.99-8.49-2.98-5.45-1.72-14.33,2.9-18.42,6.52-5.77,13.19-11.36,19.7-17.15,3.88-3.45,7.59-7.11,11.34-10.71,1.36-1.31,2.48-2.89,3.95-4.05,1.14-.9,2.69-1.93,3.98-1.83,1.31.1,1.86,4.22.65,5.84-.98,1.31-2.39,2.4-3.8,3.28-1.97,1.23-4.17,2.09-6.18,3.28-5.12,3.03-7.87,7.53-7.75,13.53.03,1.37.67,2.74,1.14,4.08,1.38,3.88,3.13,7.65,4.16,11.61,2.1,8.05,7.85,13.55,16.23,14.17,5.94.44,11.08,2.79,16.27,5.26,7.86,3.75,15.73,7.49,23.58,11.26,2.51,1.21,5.07,2.34,7.43,3.8,3.91,2.44,8.15,3.21,12.63,3,3.03-.15,5.58-1.34,7.26-3.99,2.43-3.84,4.36-7.83,4.05-12.59-.38-5.91,1.49-11.34,3.81-16.63,3.11-7.08,4.51-14.29,2.61-21.98-1.36-5.51-.46-10.93,1.85-16.03,3.38-7.47,3.9-14.62-.35-22.09-2.82-4.95-1.94-10.43-.02-15.66,1.02-2.78,2.5-5.48,2.96-8.34.57-3.57,1.05-7.45.22-10.87-1.92-8,.23-14.78,4.93-20.95,3.73-4.88,6.29-10.08,6.02-16.29-.09-2.08-.47-4.46-1.57-6.13-4.33-6.58-3.34-13.78-2.93-20.91.34-5.95,3.39-10.81,7.09-16.51.88,1.47,1.47,2.46,2.16,3.62,1.2-1.07,2.09-1.87,3.22-2.89,2.89,3.55,5.01,7.43,6.06,11.64,1.47,5.94,1.76,12.06.68,18.15-.26,1.47-.75,3.01-1.53,4.28-5.05,8.18-3.36,15.88,1.86,23.07,3.44,4.75,6.33,9.62,6.84,15.55.16,1.83.14,3.8-.35,5.55-1.9,6.79-.62,13.14,2.2,19.36,3.07,6.77,3.33,13.33-.58,20.07-3.14,5.42-2.54,11.38-.05,16.89,3.28,7.24,4.11,14.46,2.21,22.25-1.33,5.45.17,10.94,2.34,16.01,3,7.01,4.16,14.24,5.1,21.82,1.54,12.43,8.74,17.28,21.88,11.4,12.94-5.79,25.47-12.48,38.38-18.33,3.98-1.8,8.6-2.29,12.98-3.1,5.73-1.05,11.66-6.48,13.33-12.07,1.4-4.7,3.07-9.35,4.96-13.88,1.9-4.54.36-11.61-4.15-15.03-2.98-2.26-6.46-3.84-9.69-5.77-3.17-1.89-4.12-3.78-3.51-6.86.46-2.33,1.8-2.97,3.57-1.42,2.09,1.83,3.89,3.99,5.88,5.93,3.28,3.19,6.58,6.37,9.93,9.48,2.37,2.2,4.84,4.29,7.28,6.41,4.07,3.52,8.07,7.14,12.27,10.49,5.26,4.19,7.12,12.99,4.22,19.04-2.28,4.74-3.89,9.8-5.98,14.64-2.95,6.83-5.6,13.85-9.27,20.27-2.96,5.18-8.01,8.32-14.21,9.26-6.56,1-11.23,4.35-13.21,11.02-1.63,5.51-6.21,8.74-12.07,9.01-2.14.1-4.35.19-6.39.79-4.68,1.37-7.97,4.28-9.38,9.17-2.04,7.08-6.4,9.03-13.33,6.85-3.7-1.17-7.71-1.52-11.62-1.86-3.12-.27-6.29-.09-9.43.14-1.55.12-3.41.39-4.53,1.32-4.8,3.96-7.86,8.85-6.83,15.46.14.88.28,1.79.24,2.67-.23,4.63,1.29,8.75,3.15,12.93,1.39,3.12,2.14,6.59,2.76,9.98.59,3.29-.84,6.15-2.97,8.64-1.11,1.3-2.29,2.54-3.32,3.9-1.64,2.15-1.82,4.57-.35,6.79,2.07,3.15,4.23,6.57,8.73,6.09,1.69-.18,3.45-1.02,4.88-1.99,3.78-2.56,7.8-4.26,12.31-5.16,6.24-1.24,12.36-3.06,18.57-4.44,4.7-1.04,9.64-1.29,14.15-2.82,3.06-1.04,5.95-3.32,8.27-5.67,4.64-4.72,10.07-6.28,16.21-4.64,5.32,1.42,10.5,2.42,15.83.51,1.42-.51,2.99-1,4.11-1.94,6.33-5.32,13.89-7.81,21.72-9.61,6.89-1.58,13.81-3.14,20.8-4.15,3.45-.5,7.14-.04,10.63.53,4.4.72,8.75,1.2,13.04-.07,2.01-.59,4.19-1.51,5.63-2.95,5.33-5.34,11.6-6.4,18.61-4.78,7.33,1.69,14.35,1.03,21.32-1.89,4.11-1.72,8.48-2.91,12.81-4.04,6.94-1.82,13.97-3.28,20.9-5.12,6.84-1.82,13.21-4.76,18.62-9.4,4.22-3.62,8.01-7.77,12.41-11.14,4.39-3.36,8.97-7.04,14.08-8.77,6.74-2.29,13.78-.72,19.74,3.45,16.8,11.74,29.75,27.03,39.72,44.78,4.62,8.24,7.29,17.32,8.87,26.71,1.79,10.71,4.15,21.41,3.38,32.28-.5,7.09-1.7,14.38-4.18,20.98-1.77,4.72-5.76,8.89-9.54,12.49-3.22,3.07-7.97,2.14-12.16,1.86-4.65-.32-8.46-2.47-12.06-5.41-6.15-5.02-11.53-10.41-14.08-18.27-1.89-5.83-6.14-10.28-10.1-14.84-1.34-1.55-2.57-3.25-3.52-5.05-.42-.79-.38-2.21.06-2.98,1.96-3.42,8.03-3.94,10.53-.88,1.34,1.65,2.45,3.57,3.34,5.51,3.9,8.53,10.59,14.87,16.77,21.61.3.32.69.57,1.07.8.12.07.33,0,.63-.02.42-.96-1.55-2.62.74-3.14.09-.02.07-.82-.02-1.23-2.24-9.95-4.33-19.95-6.81-29.84-2.05-8.16-3.95-16.42-8.74-23.62-1.28-1.92-2.07-4.18-3.06-6.29-3.81-8.21-14.04-11.4-21.75-6.8-1.69,1.01-3.55,1.76-5.2,2.83-1.79,1.17-3.79,2.29-5.04,3.93-3.33,4.38-7.83,6.72-12.83,8.48-11.33,3.99-22.65,8.05-33.97,12.09-7.71,2.75-15.56,3.63-23.79,3.13-8.31-.5-16.7-.23-25.01.33-4.85.32-8.81,3.05-12.07,6.91-4.21,4.99-10.11,6.31-16.19,5.18-7.99-1.49-14.98-.03-21.69,4.51-6.63,4.49-14.37,6.08-22.23,6.47-6.79.33-13.61-.01-20.41.09-4.2.07-8.46.85-11.62,3.64-6.52,5.76-13.9,6.89-22.12,5.55-2.51-.41-5.16-.25-7.72.01-3.38.34-6.72,1.07-10.09,1.57-4.1.6-6.16,3.35-7.43,6.95-.46,1.31-.02,2.12,1.44,2.17.72.02,1.48.1,2.15-.09,5.38-1.5,10.37-.25,14.47,3.11,10.18,8.38,22.28,12.14,34.7,15.28,12.08,3.05,24.22,5.89,36.22,9.22,11.57,3.21,22.37,8.24,32.43,14.91,5.88,3.9,12.41,5.82,19.63,5.11,11.83-1.16,22.02,3.24,31.45,9.81,2.56,1.79,5.06,3.77,7.22,6.01,6.31,6.55,14,10.19,22.87,11.61,6.89,1.11,13.87,1.85,20.66,3.41,7.15,1.64,13.79,4.71,19.04,10.09,4.58,4.69,8.38,9.82,11.45,15.81,5.57,10.84,13.1,20.41,22.93,27.91,6.66,5.08,11.17,11.47,13.25,19.7,1.05,4.15,2.72,8.17,4.46,12.1,3.31,7.47,6.96,14.79,10.28,22.25,1,2.26,1.57,4.75,2.02,7.19.53,2.91-.31,5.22-2.87,7.26-3.57,2.84-2.71,7.04-2.28,10.99.54,4.89,1.46,9.81,1.26,14.68-.21,4.95-2.47,9.55-6.75,12.36-4.63,3.03-9.7,5.38-14.5,8.16-3.79,2.2-7.81,4.19-11.1,7-5.65,4.84-12.13,6.44-19.21,6.16-4.64-.18-9.28-.83-13.89-1.43-4.97-.65-9.89-1.61-14.87-2.2-4.44-.53-8.92-.81-13.39-1.1-4.44-.29-6.4-3.24-4.92-7.42.72-2.02,2.31-2.67,4.17-2.85,1.51-.15,3.07-.19,4.58-.01,6.95.82,12.47-2.33,17.93-6.03,5.78-3.92,11.78-7.52,17.7-11.23,5.02-3.14,10.25-5.99,13.11-11.62,1.18-2.33.76-3.92-1.43-5.16-.94-.53-1.84-1.24-2.86-1.48-5.28-1.28-7.61-5.3-8.81-9.95-1.72-6.69-5.54-11.56-11.34-15.06-5.95-3.6-9.35-8.83-11.82-15.4-3.92-10.42-9.95-19.44-22.07-21.89-1.46-.3-3.06-.36-4.53-.12-7.38,1.24-13.81-.74-18.98-6-3.84-3.89-7.95-7.14-13.46-7.82-2.68-.33-5.56-.17-8.2.44-7.54,1.74-13.86-.41-18.62-6.11-4.6-5.5-10.11-8.77-17.14-9.57-1.48-.17-3.02.09-4.53.19-6.54.44-12.69-1.1-18.51-3.9-7.28-3.51-14.91-5.45-22.92-6.44-6.51-.8-12.41-3.64-17.49-7.84-5.63-4.66-11.98-7.98-18.86-10.17-8.08-2.57-15.5-6-21.6-12.14-3.77-3.8-7.07-3.31-9.7.6-1.34,1.99-1.15,3.75.7,5.2,1.19.94,2.47,1.85,3.86,2.44,6.8,2.93,12.03,7.72,16.52,13.49,4.77,6.12,10.56,10.84,17.86,13.88,6.26,2.61,10.75,7.37,12.05,14.22,1.45,7.62,5.83,13.28,11.37,18.13,10.9,9.52,22.04,18.76,32.99,28.21,2.23,1.92,4.13,4.25,6.11,6.45,1.44,1.6,2.95,3.19,1.57,5.7-.3.55.06,1.59.33,2.32.64,1.68,1.18,3.45,2.16,4.92,7.46,11.15,9.22,23.64,8.38,36.62-.48,7.47-1.03,14.93,1.18,22.15,2.09,6.85,4.46,13.65,7.18,20.28,2.79,6.8,3.96,13.51,1.77,20.69-1.76,5.76-.99,11.5.47,17.26,3.03,11.94,3.83,23.98-.41,35.77-1.71,4.77-4.52,9.15-6.76,13.73-1.14,2.34-2.24,4.7-3.16,7.13-3.08,8.14-9.18,12.32-17.54,13.56-5.31.78-10.63,1.88-15.98,2.04-6.91.22-13.83-.66-20.33-3.23-5.83-2.3-11.79-2.9-17.96-2.62-3.23.14-4.39-.81-4.32-3.04.11-3.26,1.45-4.71,4.64-4.52,2.85.17,5.67.78,8.52,1.07,5.4.56,10.82,1.51,16.22,1.44,6.7-.09,12.92-1.82,18.32-6.53,8.96-7.82,12.35-17.71,12.5-29.17.04-3.32.42-6.62.5-9.94.18-8.03-1.51-15.64-5.04-22.9-2.69-5.55-3.98-11.49-4.15-17.69-.16-6.06-1.28-11.96-3.78-17.51-3.23-7.15-4.43-14.36-2.42-22.21,1.54-6,.23-12.05-2.94-17.36-3.98-6.66-6.62-13.5-7.26-21.4-.53-6.57-4.33-12.04-10.01-15.6-11.62-7.27-20.96-16.87-29.04-27.77-4.33-5.84-9.52-10.7-15.36-15.01-11.03-8.14-21.38-16.98-28.81-28.79-3.3-5.25-7.93-9.33-13.53-12.08-7.44-3.66-12.56-8.95-14.25-17.41-1.03-5.13-3.94-6.44-8.18-4.53-2.15.97-3.02,2.53-2.02,4.78.77,1.72,1.59,3.43,2.56,5.04,3.27,5.42,3.24,10.99.41,16.45-3.44,6.63-3.74,13.36-1.49,20.34,1.88,5.84,1.55,11.66-.21,17.47-1.81,5.98-2.58,11.98-1.85,18.3.72,6.28-.02,12.45-2.93,18.36-3.07,6.24-2.49,12.62,1.18,18.52,2.11,3.39,3.05,7.04,2.3,10.8-.48,2.42-1.58,5.24-3.35,6.78-5.68,4.95-5.05,14.59-.9,19.37,2.45,2.82,3.93,6.05,4.53,9.88.66,4.14-.48,7.72-1.78,11.5-3.45,10.1-6.9,20.24-6.47,31.15.13,3.22.75,6.47.52,9.66-.33,4.53-1.07,9.06-1.93,13.53-1.24,6.47-.49,12.8.3,19.25.58,4.71.52,9.76-.57,14.35-1.77,7.44-1.85,14.42.96,21.61,2.28,5.84,1.94,11.78-1.07,17.45-3.1,5.83-3.4,11.91-.83,17.93,2.93,6.87,3.03,13.66.61,20.68-1.91,5.53-2.17,11.22-1.11,17,1.2,6.6.24,12.81-3.4,18.59-3.61,5.74-4.29,11.98-1.97,18.33,2.28,6.23,2.58,12.39.45,18.69-2.24,6.62-1.43,13.15.15,19.83,1.56,6.61,2.97,13.36,3.33,20.1.29,5.56-.84,11.22-4.01,16.23-3.43,5.43-4.39,11.54-2.56,17.6,2.33,7.7,2.08,15.38,1.39,23.19-.5,5.62-.56,11.29-1.09,16.91-.73,7.74-1.72,15.46-2.63,23.19-.07.61-.24,1.31-.61,1.76-.57.69-1.31,1.55-2.08,1.66-.5.07-1.54-.94-1.72-1.63-.83-3.2-1.79-6.42-2.08-9.68-1.04-11.96-1.95-23.94-2.64-35.93-.34-5.89-.62-11.82,1.27-17.63,2.3-7.04,1.29-13.75-2.44-20.17-3.88-6.67-4.38-13.95-3.07-21.37,1.03-5.81,2.44-11.56,3.49-17.37,1.05-5.79,1.16-11.56-.78-17.28-1.91-5.62-1.86-11.3.26-16.89,2.75-7.23,2.01-14.07-2.16-20.56-3.4-5.3-3.92-11.22-2.95-17.15,1.04-6.37.72-12.49-1.37-18.54-2.2-6.4-1.95-12.65.71-18.89,2.67-6.28,2.63-12.57-.6-18.68-3.1-5.87-3.14-11.96-.86-17.99,2.47-6.54,2.92-13.03.89-19.73-2.07-6.82-1.38-13.67-.03-20.51,1.05-5.31.59-10.58-.78-15.73-1.8-6.78-1.54-13.55-1.19-20.49.29-5.72-.59-11.63-1.83-17.27-1.35-6.19-3.75-12.14-5.59-18.23-1.96-6.48-.82-12.45,3.42-17.73,2.51-3.14,3.89-6.58,3.81-10.65-.06-3.23-1.17-5.91-3.39-8.23-5.15-5.38-6.01-11.51-2.19-17.95,4.06-6.84,4.49-13.67.89-20.75-2.95-5.8-2.33-12.04-2.34-18.23-.01-4.36.43-9-.87-13.02-2.78-8.66-2.78-16.98-.21-25.62,1.48-4.96.65-10.05-1.8-14.65-3.58-6.73-3.57-13.2.69-19.59.3-.45.55-.93.8-1.41,1.92-3.69,1.59-5.4-1.26-6.7-3.82-1.74-6.32-.78-7.71,2.98-.31.84-.62,1.7-.78,2.57-1.33,7.47-6,12.33-12.48,15.59-7.12,3.58-12.55,8.84-16.78,15.53-5.37,8.48-12.96,14.87-20.55,21.23-5.3,4.44-10.76,8.67-16.02,13.16-1.76,1.5-3.3,3.35-4.6,5.26-6.24,9.13-14.09,16.74-22.42,23.89-1.96,1.69-4.21,3.07-6.4,4.46-6.88,4.35-11.01,10.31-11.56,18.63-.39,5.92-2.32,11.43-5.48,16.45-4.57,7.25-6.14,14.84-3.99,23.37,1.43,5.67.38,11.45-2.06,16.83-3,6.64-4.49,13.53-4.7,20.85-.18,6.12-1.77,12.07-4.57,17.59-4.89,9.61-4.85,19.88-4.29,30.27.32,5.94.91,11.75,3.18,17.35,4.3,10.6,11.62,17.7,23.13,19.32,4.31.61,8.86-.34,13.29-.67,5.51-.4,11-.98,16.51-1.31,2.84-.17,4.14,1.38,4.17,4.39.02,2.59-.72,3.38-4.08,3.16-6.96-.47-13.46,1.08-20.03,3.24-9.43,3.09-19.15,3.64-28.94,1.46-1.66-.37-3.35-.57-5.04-.81-9.05-1.28-15.26-5.9-18.4-14.76-1.43-4.02-3.7-7.78-5.83-11.51-5.66-9.9-7.3-20.58-5.99-31.72.72-6.12,2.34-12.13,3.02-18.25.4-3.58.38-7.44-.55-10.89-2.08-7.72-.95-14.79,2.15-21.98,4.62-10.73,8.69-21.69,8.55-33.65-.07-6.17-.49-12.34-.46-18.5.05-7.96,2.31-15.38,6.17-22.33,1.44-2.59,2.74-5.25,3.98-7.94.4-.86.82-2.07.51-2.83-1.12-2.72.26-4.59,1.98-6.19,7.31-6.77,14.67-13.49,22.09-20.13,6.83-6.11,13.96-11.88,20.57-18.2,3.99-3.81,6.39-8.68,7.52-14.31,1.34-6.69,5.78-11.42,11.97-13.98,7.12-2.95,12.88-7.46,17.53-13.45,4.71-6.07,10.17-11.14,17.34-14.15.66-.28,1.27-.67,1.88-1.06,3.25-2.11,3.87-3.87,2.26-6.34-2.04-3.14-4.85-3.94-7.77-2.1-1.21.76-2.37,1.66-3.37,2.68-5,5.08-11.16,8.07-17.86,10.13-8.24,2.54-15.71,6.45-22.47,11.89-5.65,4.55-12.52,6.31-19.61,7.62-5.86,1.08-11.75,2.6-17.24,4.87-7.67,3.16-15.19,5.18-23.71,4.61-6.88-.46-13.18,2.6-17.6,8.36-3.17,4.13-7.26,6.75-12.34,7.53-2.32.36-4.88.31-7.13-.29-7.85-2.11-14.19.42-20.06,5.49-2.95,2.54-6.16,4.88-9.55,6.79-3.47,1.95-7.4,1.5-11.32,1.19-7.74-.61-14.1,2.63-18.77,8.59-3.91,4.99-7.45,10.23-9.13,16.64-1.31,4.99-4.94,8.76-9.41,11.38-6.53,3.82-10.86,9.11-12.73,16.58-1.1,4.4-3.64,7.77-8.49,9.23-5.55,1.68-6.61,4.77-2.72,9.08,3.19,3.53,7.32,6.28,11.3,8.98,5.78,3.92,11.93,7.29,17.68,11.25,5.69,3.93,11.47,7.08,18.69,6.16.89-.11,1.8-.03,2.7-.02,4.81.07,6.77,2.58,5.58,7.2-.57,2.19-2.34,3.08-4.29,3.03-8.16-.2-15.99,1.87-23.95,3.11-6.62,1.03-13.37,1.53-20.08,1.72-6.9.19-13.06-1.87-18.54-6.57-3.6-3.08-8.27-4.9-12.44-7.33-4.64-2.71-9.72-4.93-13.76-8.35-4.64-3.93-6.37-9.55-5.52-15.85.69-5.14,1.23-10.32,1.34-15.5.04-1.84-.85-4.44-2.22-5.44-3.75-2.74-3.39-6.26-2.82-9.92.26-1.65.99-3.26,1.7-4.8,3.92-8.57,7.98-17.08,11.81-25.69,1.31-2.93,2.3-6.04,3.1-9.16,1.97-7.72,6.21-13.87,12.43-18.72,11.05-8.62,18.92-19.62,25.53-31.92,7.2-13.39,18.42-21.4,34.09-23.24,10.33-1.22,20.97-2.23,30.17-7.99,2.41-1.51,4.73-3.29,6.76-5.29,8.67-8.56,18.77-14.44,30.82-16.57,2.97-.52,6.12-.42,9.14-.13,6.83.66,13.12-1.07,18.68-4.69,13.42-8.75,27.88-14.59,43.56-17.91,10.86-2.3,21.47-5.78,32.25-8.49,9.52-2.39,18.38-5.98,26.19-12.1,4.94-3.87,10.43-6.15,17.05-4.48,3.2.8,3.8-.43,2.51-3.58-1.71-4.19-5.21-5.38-9.22-5.9-2.22-.29-4.42-.89-6.64-.99-3.55-.16-7.16-.37-10.67.07-7,.88-13.36-.02-18.91-4.79-5.55-4.77-12.33-4.77-19.15-4.6-5.27.13-10.6.44-15.81-.18-5.21-.63-10.32-2.2-15.4-3.62-1.86-.52-3.66-1.55-5.24-2.69-6.58-4.74-13.67-6.05-21.67-4.57-6.39,1.18-12.42-.37-16.77-5.7-3.9-4.77-9.13-6.76-14.92-6.9-7.98-.19-15.98.27-23.96.44-7.61.16-14.96-.93-22.15-3.63-11-4.12-22.11-7.95-33.21-11.82-4.92-1.72-9.36-3.97-12.67-8.24-1.27-1.64-3.21-2.84-4.98-4.01-1.64-1.09-3.51-1.81-5.21-2.82-8.22-4.86-18.24-1.66-22.23,7.05-1.31,2.85-2.79,5.63-4.29,8.39-4.38,8.08-6.31,16.93-8.28,25.78-1.87,8.38-3.88,16.74-5.72,25.13-.1.6.58,1.44,1.05,2.64Z"/>
</svg>