<?xml version="1.0" encoding="utf-8"?>
<!-- Generator: Adobe Illustrator 27.5.0, SVG Export Plug-In . SVG Version: 6.00 Build 0)  -->
<svg version="1.1" id="Layer_1" xmlns="http://www.w3.org/2000/svg" xmlns:xlink="http://www.w3.org/1999/xlink" x="0px" y="0px"
	 viewBox="0 0 1080 1080" style="enable-background:new 0 0 1080 1080;" xml:space="preserve">
<style type="text/css">
	.st0{fill:#F1FF31;}
</style>
<g>
	<g>
		<g>
			<g>
				<path class="st0" d="M171.04,447.81c-2.6,4.05-8.61,9.26-13.7,10.98c0.6,1.94,1.97,9.68,0.9,9.24
					c-5.99-0.23-13.19,5.62-13.96,10.68c-0.15,1.99-1.51,5.17-1.35,3.06c-1.9,4.72-7.03,8.41-6.66,7.77
					c-0.98,4.37,10.69,5.15,11.37,1.03c-4.74-0.81-8.76,8.98-8.65,12.79c-1.13-6.2,10.8,1.71,12.06-1.22
					c-0.36,0.74-5.32,6.93-6.82,6.92c3.33,4.1,9.56,7.19,11.34,11.85c1.37-1.27-1.22,10.3-0.51,4.97
					c-0.21,4.35,8.3,12.26,11.73,6.39c0.9,0.21-14.11,2.24-14.66,0.74c0.28-2.24-1.46,3.98-1.77,4.91c-1.03,3.1-2.01,6.2-2.99,9.31
					c-3.37-4.51-8.62-7.87-10.34-13.27c1.51,5.52-8.56,12.23-9.54,5.61c-1.56,6.62-3.21-13.58-2-5.75c0.48-4.6-0.37-9.57,1.42-13.95
					c-2.02,0.56-10.64-2.78-11.76,0.51c0.24,3.03-5.56-2.25-5.79-1.86c-0.74-3.72-2.37-12.71-0.41-14.85
					c-1.35,3.33,2.93-8.94,3.16-5.79c-1.32-3.95-6.24-13.08-11.34-13.68c-0.09,5.55-1.29-5.12-2.45-1.39
					c1.72-1.76-3.9,11.65-3.53,7.51c-1.58-2.81-3.89-13.84-3.44-11.78c-0.66-1.76-2.04,6.41-1.85,10.51
					c0.48-0.81-8.54,6.79-7.92,5.83c-0.2,4.82,0.94,10.32,4.93,13.95c0.09,2.41,6,1.3,6.2,2.39c0.35-0.53-4.04,4.1-2.62,5.93
					c-0.96,3.62-3.72,10.34-2.83,12.99c-0.08,1.08,7.33,10.11,8.86,9.59c-1.12-0.06,6.6,5.62,7.97,6.99
					c0.02-8.78-13.03-1.63-12.37-3.47c-0.66,1.67,8.55,3.07,7.26,1.89c-0.22-3.41-4.79-3.87-4.75,0.92c-1-3.21-0.24,11.32,1.93,6.84
					c0.08,3.3-8.12-4.46-8.12-5.87c-0.96-5.25-4.63,11.36-2.03,8.44c-0.61-5.76-12.14-14.51-10.19-4.42
					c1.72-3.21-7.87-3.81-9.72-5.42c1.18,0.19,1.12-8.39,0.51-7.46c-1.26-3.3-2-6.73-3.12-10.06c-0.27,1.05-0.2,2.12,0.22,3.19
					c-1.15,2.14-3.79-8.75-2.77-12.04c-0.36,0.94-4.71-14.71-5.84-10.92c-0.48,0.89-3.92-2.78-2.86-3.79
					c-0.63-4.83-0.93-10.16-3.38-14.55c-1.89-0.01-1.32-3.1-1.98-6.27c1.32-1.83,8.07-7.98,7.82-3.47
					c-0.94-9.16,0.61-11.42,0.52-12.92c-0.8,2.29-0.71-11.04-0.87-7.47c0.46-4.24-4.61-8.59-7.03-10.88
					c1.42,2.2-1.35-7.05-2.56-7.65c0.11,0.47,0.21,0.94,0.32,1.41c5.19-1.25,10.06-7.3,10.42-11.76c0.64,1.82-11.82-6.96-10.03-5.87
					c-0.98-6.08-0.51-13.96,3.46-19.32c-4.11-3.68-12.22-5.18-12.84-11.06c-0.97,2.8,8.58-5.84,9.76-0.12
					c-0.72-2.35-8.28-11.96-9.97-6.74c0.27,5.25,5.87,8.76,10.88,11.14c-2.38-5.73-7.27-10.14-7.85-16.54
					c1.6,4.15,13.21,9.34,11.89,1.26c-0.06-0.15,12.25-1.6,11.45-3.71c0.35,9.84,7.94-2.21,8.94,3.59
					c-1.3-8.19,7.2-10.16,8.59-16.54c0.18,6.12,12.55,10.12,12.5,2.24c-1.93,6.42,9.73,7.29,8.8,7.77
					c0.66-9.04,8.81-5.53,12.5-10.26c0.33-4.47,6.93-8.75,7.35-5.65c0.32-7.18,9.75,5.92,10.33,8.78c0.51-4.19,8.77-13.02,13.96-7.8
					c-0.14,4.58,4.31,11.07,5.77,9.87c3.67,3.8,13.9,3.58,15.27-2.08c0.1,6.38-3.77,12.52-3.5,18.67
					c-0.11,5.31-2.03,10.53-3.04,15.75c0.31-0.85,0.63-1.71,0.94-2.56c4.11,3.15,4.32,9,3.59,13.53c0.07-1.27,7.36-1.66,8-3.61
					c-0.3,1.52-3.63,13.51-3.78,11.69c-2.5,5.62-4.46,11.59-5.19,17.56c-0.49-9.25,0.98,6.51,1.36,0.98
					c0.84,3.77,2.67,10.09,6.44,11.43c0.26-0.21-8.94,8.7-7.44,4.55c0.61,2.49,2.78-4.54,1.95-11.35
					c-1.85,6.83-1.89,6.13-4.29,10.05C161.87,452.62,167.91,454.5,171.04,447.81z M118.18,456.29c-0.61,1.39,7.56,5.47,7.89,4.95
					c0.23,0.65,0.02-7.93-0.36-8.07c-0.02-0.53,9.21-4.68,8.88-2.09c-0.03,0.69-7.38-7.18-7.35-7.91c-0.61,1.65,9.01-8.23,9.14-8.46
					c-0.3,1.56-7.84-8.86-7.7-10.35c2.1-3.4,6.76-9.58,11.08-10.51c-4.18-3.46-11.07-3.25-15.94-5.75
					c-0.11,0.28-2.29-12.76-2.86-12.73c-2.24,4.16-5.98,7.93-9.63,11.29c0.5-0.48-11.17-6.43-10.96-8.41
					c-0.44,2.14-3.47,9.57-3.29,7.65c-2.01,5.28-4.62,10.63-7.85,15.46c0.61-1.75,7.14,6.1,7.02,6.41c0.39-0.14,4.4,6.86,4.12,5.3
					c0.74,2.5-5.41,9.15-5.07,7.44c-0.66,2.02-6.22,5-5.86,7.31c0.23-0.38,4.08,11.31,4.6,11.21c-0.75,0.2,2.72,1.94,2.28,2.96
					c0.06,0.93,7.91-3.09,7.82-2.97c-0.13,0.12,5.34,1.88,5.79,2.89c-0.5,1.11,8.61-5.65,8.68-4.59c-0.45-1.67-1.38,4.28-1.59,5.19
					c-0.08,1.92-0.78-7.4-1.21-6.09c0.61-0.63,7.32,5.58,7.51,4.15C122.78,459.61,117.27,458.49,118.18,456.29z"/>
			</g>
			<g>
				<path class="st0" d="M307.61,350.61c-4.67-3.72-12.04-2.56-11.64-10.3c1.74,6.22,9.28,11.05,9.42,17.59
					c1.36,0.54-5.88-9.64-7.23-11.18c0.23,3,1.41,6.55,3.23,9.18c0.25-1.28,0.19-2.57-0.18-3.86c-3.23,5.13-16.68,2.49-18.64-2.57
					c-2.65,4.48-9.88,6.49-14.45,9.4c-4.32-2.01-18.86-6.95-17.38,1.64c-2.58-7.22-12.18,1.2-14.68-3.67
					c0.09,5.85-4.1,9.82-6.19,15.05c5.39,1.8,9.65,11.11,8.46,16.12c1.38-4.55-6.6,14.12-7.05,5.5c-0.7,5.96,3.73,9.02,6.71,13.64
					c1.77-3.87,8.4,9.4,7.27,2.11c3.95,1.81,12.57-7.12,16.45-9.55c0.29,4.96,5.29,10.14,9.63,13.31c4.43,3.31,12.7-4.38,17.89-1
					c-0.08,1.93-8.12,1.82-9.98,1.74c1.76,5.29,6.17,14.71,12,16.95c-2.6,1.83-14.45,1.47-12.08-2.59
					c0.67,5.65,5.24,9.97,3.91,16.13c3.24-5.95-6.74-3.9-8.74-0.7c2.02-5.48-1.54,8.94,1.05,0.32c1.52,1.57-3.66-1.18-3.56-0.91
					c-1.15,0.09-4.83,7.2-5.03,9.19c0.94,4.58-8.32-7.31-10.26-5.83c2.9-5.12-13.76-1.82-13.15-2.59
					c-2.46,8.73-10.43-6.37-9.76-4.35c-1.68,5.16-10.26,9.09-10.68,9.24c1.97-4.14-10.64,1.38-10.98,5.65
					c-1.99,4.83,4.19,5.7,3.9,5.71c-1.72,5.14-5.06,9.89-6.55,15.05c-0.29,3.86,3.39,10.87,8.3,9.66c3.56,1.2,6.19,11.5,7.63,15.44
					c1.83-8.41,14.1-7.43,19.75-12.46c3.16-2.65,10.65,8.19,15.18,8.08c-0.75-1.98,10.83-11.16,10.14-9.66
					c-1.28,7.59,6.35,6.2,7.46,6.54c-0.38-6.6,0.28,5.48,2.8-0.85c-0.72,2.2,8.57,3.86,8.6,3.56c-0.83,5.47-7.61,6.74-9.09,11.74
					c1.78,1.62,15.12,1.39,15.56-0.14c-0.92,5.67-13.19,12.42-9.92,4.95c-3.01,2.2,5.59,2.74,4.78,4.09
					c0.33,2.55-7.05,1.13-7.69,0.63c1.59,4.11,4.08,5.15,2.64-1.46c0.45,8.14-12.34,6.98-15.72,1.89
					c-3.19-6.62-15.99,5.22-16.79,9.09c-0.12-5.95-8.46-10.75-14.61-12.23c-3.78,4.33-10.99,5.97-13.65,10.99
					c-3.75-3.79-4.92-9.86-9.29-13.05c0.12,6.74-6.69,11.5-6.12,18c-2.24,1.25-8.75-6.23-8.26-7.8c-2.54-6.29-8.24,1.83-9.92,4.77
					c0.39-3.52-2.88-6.29-2.24-11.14c-2.87,7.21-0.83-10.84-1.41-2.54c0.86-4.34,2.02-9.67,1.41-13.93
					c-0.18,0.57-0.36,1.15-0.54,1.72c-1.43-4.55-2.14-12.29-2.1-15.51c-0.67,0.26-5.02-8.67-4.32-8.84
					c-3.22,8.19-3.24-1.34-2.06-1.83c0.7-5.72,2.44-11.3,2.93-17.05c-2.5,9.45,4.31-4.07,3.31-0.94
					c-0.19-3.41,3.21-11.87,2.76-12.77c0.47-3.39,1.03-7.92,3.36-10.88c0.36,0.82,0.72,1.64,1.08,2.45
					c-1.06-5.88-5.06-10.83-6.21-16.61c2.35-2.33,3-12.17,1.66-11.5c-0.25,7.98,3.55-6.81,2.5-2.05c0.43-4.14,3.62-10.54,9.31-10.11
					c-0.32,0.01-7.23-4.44-6.75-7.56c-2.1,2.79-1.64-14.57-1.26-6.37c-0.16-4.51,0.54-9.1,0.07-13.58c-0.2,0.54-0.39,1.08-0.59,1.62
					c1.71-2.06,2.01-7.18,2.37-10.56c-0.11,1.31-0.23,2.63-0.35,3.94c0.72-6.99-2.69-11.95-5.88-17.94
					c1.22,1.95-12.13,0.58-10.79-2.85c-0.96,0.11,9.86,2.19,10.87-5.14c-1.16,7.88-6.67-2.24-6.42-5.37
					c0.16,2.84,6.66,11.82,7.28,10.55c-0.45-3.57-1.55-7.2-4.1-10.1c-1.81,0.97-2.33,2.52-1.58,4.64
					c0.95-6.95,14.83-2.31,15.32-11.32c-1.86,3.59,12.08,2.86,11.79-1.23c4.74,0.45,14.44,4.32,14.66-3.13
					c-1.29,6.46,10.57-4.75,9.05-1.5c4.52-7.72,15.99-1.73,16.17,5.15c-1.55-2.13,11.49-6.54,11.1,0.05
					c-0.42-6.73,12.25-13.19,11.81-5.23c4.64-3.75,12.04-10.78,10.52-16.64c3.69,6.49,1.51,15.84,3.65,23.06
					c2.12-3.19,15.29,5.03,12.97-3.78c2.27,7.41-2.82,7.99-6.66,12.34c6.5,0.36,13.1,6.96,13.24,12.31
					c-0.25-6.24-3.7,6.78-4.27,2.33c1.2,8.13,0.48-4.23-1.3,0.34c2.18-2.02,2.87,2.73,2.99,5.63c-0.69-3.43-0.66-6.61,1.11-9.49
					C306.97,346.9,307.65,348.63,307.61,350.61z"/>
			</g>
			<g>
				<path class="st0" d="M436.94,277.15c-0.67-2.63-3.38,11.69-2.2,5.58c0.2,4.81,2.99,8.67,4.15,13.15
					c-0.29,4.12-0.01,8.33-0.78,12.42c-0.79-0.43-1.03-1.14-0.72-2.13c0.68,5.82,3.34,11.06,2.36,17.01
					c0.62,2.35,3.41,5.37,3.72,2.89c-1.81,3.77,3.26,6.54,3.27,12.51c-2.03,5.42,1.34,6.99,2.29,7.04
					c0.37,5.66,1.53,13.62,4.83,18.49c-0.87,1.41-5.52-2.46-6.63-2.37c0.61,7.8,0.84,15.39-1.24,23.04
					c0.17-0.67-7.28,4.52-6.34-0.64c-0.08,3.96-1.47,8.47-3.2,12.15c-0.22-0.95-0.14-1.91,0.24-2.86c-1.79,6.22-0.2,7.86-0.6,7.78
					c0.43,4.56,2.28,13.6,2.02,15.77c0.8-2.31,0.27,3.4,0.32,4.4c0.11,2.43-0.04,5.07,0.72,7.25c-1.87-0.96-0.38-0.3-1.03,2.16
					c-0.86,3.25-0.53,6.68-1.46,9.97c1.66-2.49,1.44-3.84-0.66-4.02c-2.48,3.66-4.04,8.01-4.76,12.17c-0.33-5.48-4.8,4.32-3.61,9.35
					c-1.63,0.65,1.95,11.23,2.97,2.05c3.51,4.01,4.89,9.84,7.08,14.47c-3.79-6.83-7.71,7.23-7.85,9.99
					c-0.96-4.17-1.34-0.83-0.78,7.04c-0.25,2.7,6.05,6.32,5.81,7.23c2.77-0.12,8.58,2.75,9.34,2.71
					c-1.08,5.35-11.01,1.38-10.54,8.64c-1.24-3.34,6.88-3.86,7.26,0.76c-1.15-4.88-8.02,0.24-9.61-0.34c0.1-11.18,5.07,3.21,5.65-1
					c-3.02,3.19-7.96-4.8-10.46-6.74c-0.89,0.4-1.07,1.08-0.54,2.05c-1.41,3.97-6.78,10.13-11.71,11.17
					c-2.38-3.99-3.6-11.04-7.31-13.67c-3.69,4.79-13.78,0.79-14.83,9.26c0.39-2.27-0.28-16.21-3.63-14.12
					c-0.93-6.58-6.28-4.69-3.72-12.09c-1.23-1.54-2.43-12.27-3.57-4.49c-1.09-3.93-1.31-8.26-3.24-12
					c-1.07,0.15-1.44,0.84-1.12,2.05c-4.01-5.27-4.47-12.19-2.58-18.14c-0.84,10.47-9.21-0.39-10.16-3.9
					c0.32,1.72,2.32-9.4,1.62-9.46c2.83-3.39,5-2.7,4.52-6.72c1.74-5.26-0.01-11.15,0.31-16.57c0.82-1.02,1.67-6.74,0.98-12.16
					c0.18,6.99-3.23,0.71-4.58-1.49c2.1,0.05,1.09-8.22-0.42-11.76c-1.15,6.9-8.22,12.72-9.73,19.93c0.39-1.15,0.39-2.28,0.01-3.39
					c-3.07,3.96-3.96,9.02-7.25,12.88c3.1-7.07,1.17,10.85,3.24,1.92c-2.99,4.33-1.35,11.47-2.25,16.32
					c0.03,0.96,2.82,3.07,0.09,12.54c1.22-1.22,0.16,9.1-0.8,10.26c1.08-1.39-0.89,0.71-0.99,1.77
					c-2.85,2.42-9.73,14.99-11.46,13.62c0,5.56,9.03,6.22,6.1,13.02c4.17-1.65,5.58,9.25,5.06,11.89c-0.41-8.54,8.37-3.63,8.88,1.52
					c-0.11,3.93-11.27,1.06-11.21-0.95c-2.77,7.59,12.65,4.06,10.27,4.32c0.97,4.48-9.74-3.25-10.4,6.21
					c1.3-11.67,4.44-6.95,5.52-4.51c-0.37,9.59-11.92,0.79-10.12-6.09c1.62,1.07-7.09,9.75-5.52,8.91c-1.73,6.5-5.32-6.74-6.03-1.39
					c-0.46-0.25-14.27,4.21-11.73,0.4c-0.25,1.25-0.44,2.5-0.58,3.76c1.02-5.33,2.07-10.97,1.63-16.37c0.7,1.46-2.17,1.2-2.41-5.57
					c0.28-1.13,3.21-8.95,1.59-13.23c1.24,0.17-5.82-3.75-2.21-8.59c-1.08,2.49,1.42-3.7,1.09-5.02c-0.18-5.41-5.13-9.1-4.4-14.89
					c0.08,4.83-2.43-0.39-1.11-8.44c2.41,0.75,0.05-2.51-1.21-2.49c1.2-4.75,4.01-10.13,7.91-13.78c-0.16,0.98-0.32,1.96-0.48,2.93
					c4.49-1.13,7.15-9.1,7.59-13.01c-1.62,4.9,2.8-7.48,3.16-9.42c1.17-2.35,5.65-9.58,4.59-1.17c0.86-6.97-0.34-14.18-1.18-21.12
					c2.09,3.02-4.42-2.42-2.73,0.1c-0.77-7.64,2.02-14.6,1.68-22.09c0.29,0.73,0.57,1.46,0.86,2.2c1.02-3.84,0.37-8.52,0.4-12.52
					c-1.22-0.33,5.19-14.07,4.55-6.15c-1.27-2.31-5.87-17.09-8.67-17.47c1.02-4,2.97-10.73,3.74-15.7
					c-0.35-5.46-5.83-8.71-8.82-13.14c1.57,7.77-9.13,0.56-6.83-0.65c3.7,3.04,12.79-4.89,13.87,3.33
					c1.62-3.65,4.01-9.66,7.82-11.77c0.02,0.56,0.03,1.12,0.05,1.69c3.72-2.51,10.24,8.66,11.15,12.03
					c0.77-7.03,10.35-4.31,13.25-9.39c-0.09,1.4,2.63,9.36,1.94,12.29c4.98,1.64,14.39,5.99,14.32,11.15
					c1.04,5.64,0.78,11.44,1.43,17.13c2.8,4.04,8.52,6.9,13.25,9.23c0.72,4.49-3.79,9.81-5.8,13.86c6.01,2.94,13.96,2.58,13.69-5.1
					c-2.15,7.37-5.55,15.73-10.52,22.05c-0.02-10.18,10.6-3.76,12.44,1.73c-2.5-5.45-10.82,8.25-10.28,11.41
					c-1.01-1.48,9.3,12.36,10.21,3.98c0.23,2.81-2.87,19.62-10.2,15.12c-0.16,6.98,9.52,9.09,10.1,7.02
					c1.79-4.44,6.17-7.72,5.56,2.45c2.04-8.44-7.13-7.49-10.26-13.01c1.16-5.29,13.44-9.93,13.48-1.67
					c-2.21-4.18-6.03-8.79-5.94-13.46c3.28-1.62,5-9.44,8.39-12.66c0.98,0.19,1.33,0.8,1.06,1.83c-0.37-4.63,1.51-10.92,6.55-13.46
					c1.39,1.01,1.58,2.34,0.54,3.97c0.25-8.28-4.01-11.05-5.18-11.15c-0.58-2.69-3.39-16.59-7.32-14.48
					c-0.59-6.72-0.3-17.64,4.14-23.43c-0.14-4.95,2.02-9.84,2.64-14.82c2.98,9.84-9.35-2.68-11.72,1.42
					c0.09-5.98-0.13-11.86-2.6-17.56c-0.77-1.78-1.48-6.06-2.49-3.8c2.87,0.79,7.05,7.59,12.01,7.88c0.77-3.55,2.8-11.19,5.99-12.03
					c1.11,1.19,5.24,12.59,7.3,7.81c3.2-4,2.98-12.16,1.3-16.61c1.69,3.78,2.13,7.84,3.69,11.65c1.04-0.78,1.28-1.85,0.72-3.22
					c0.04,0.96,0.08,1.92,0.12,2.89c-0.21-3.7-0.41-7.41-0.68-11.11c-0.58-0.18,3.55,12.78,3.83,6.79
					C434.23,282.87,436.71,282.56,436.94,277.15z"/>
			</g>
			<g>
				<path class="st0" d="M565.14,519.23c-1.62-6.4,0.03-13.11-0.85-19.49c-0.37,1.31-0.64,2.63-0.79,3.98
					c0.43-8.97-9.68-15.49-14.79-22.45c2.51-4.93,5.23-10.4,5.12-15.82c1.02-0.18-14.18-5.09-11.51-1.26
					c-0.6-1.95-7.4-15.99-10.26-8.79c0.01,6.28-12.27,7.7-15.71,2.88c0.55,0.98,0.41,1.42-0.41,1.32c-2.09-2.6-3.63-5.84-6.48-7.88
					c-0.91,0.58-1.15,1.41-0.73,2.48c0.73-2.09-5.94,1.52-8.38,5.77c1.92-3.43-8.14,2.31-9.67-0.57
					c7.62,4.74,13.94,13.91,14.74,21.79c-1.63-7.14-13.1,9.18-13.06,13.46c0.25-9.26,12.18,7.15,11.72,12.46
					c1.18-7.77-9.84-4.99-10.51-11.75c3.54,4.95,9.72,8.83,11.76,14.46c-0.15-8.03-13.79-12.07-11.57-2.98
					c-0.1,0.84,4.89-5.8,3.91,4.48c-1.51-5.15-5.05-9.88-8.29-14.37c0.47,7.48-9.09,11.75-8.74,19.91c-0.16-7.26-3.46-14-5.59-20.93
					c-2.81,2.7-11.46,10.08-14.52,6.23c-0.59-3.74-0.54-7.55-0.28-11.31c0.2,1.07,0.16,2.14-0.11,3.23
					c0.62-5.22,1.85-15.05,5.87-18.54c-2.32,3.83,0.44-5.28,1.57-4.25c-0.61-3.61,3.31-14.12,3.32-8.16
					c-2.35-4.12-0.89-13.42,2.36-16.44c-0.12-5.02-3.06-9.16-2.44-14.33c-1.03-2.51-3.84-10.42-2.35-1.46
					c-1.54-6.97-0.55-13.82,1.97-20.51c-0.11,8.61,6.13-9.37,5.29,2.06c0.45-6.23,0.64-13.45,4.64-18.94
					c1.11,0.63,1.26,1.6,0.46,2.9c1.46-6,5.58-13.08,6.56-11.42c-0.67-0.16,8.44-8.27,7.8-9.84c0.99-4.86,5.4-7.6,5.13-13.09
					c0.35-3.03,1.17-4.95,2.41-7.45c0.25-3.09-0.04-6.58-1.45-9.48c-1.76,1.31-2.3,3.1-1.63,5.37c1.16-5.04,2.04-10.25,4.35-15.01
					c0.07,0.55,0.14,1.09,0.21,1.64c0.15-5.65,4.39-9.55,9.05-12.8c-0.3,10.47-5.54-1.69-6.67-3.26c1.62-5.31,10.36-7.11,8.26-13.61
					c0.83,2.41-6.17-0.48-6.35,5.07c-2,0.91,9-10.9,6.13-11.07c0.31-4.78-2.56-12.45-7.15-15.49c0.01,0.57,0.03,1.15,0.04,1.72
					c3.66-3.64,5.17-10.52,6.55-15.2c-0.11,0.53-0.22,1.06-0.33,1.58c-1.98-3.8-1.98-9.97-1.18-14.1
					c0.23,4.29,11.59,10.19,10.72,6.12c0.49,4.84,9.25-7.14,10.54-3.29c-0.39-1.17-0.06-2,1-2.49c2.39,2.01,6.59,10.87,9.29,8.63
					c2.81-3.92,6.16-7.58,8.35-11.84c-2.71,1.9-1.2,8.87,0.72,8.44c-2.38,5.6,5.69-2.89,4.97,2.37c0.99,1.3-2.62-4.05-3.18-0.34
					c0.44,5.44,9.85,5.52,9.42,4.02c-0.76,0.99,2.55,2.28,3.13,1.46c-1.11,5.22,0.4,10.77,0.34,16.03c-0.31-1.3-0.55-2.61-0.74-3.93
					c1.95,5.22,1.67,11.48,1.2,16.89c-0.34-0.67-0.44-1.38-0.31-2.14c-1.06,7.92,4.22,16.21,3.52,24.46
					c-0.05-8.59,9.17-1.78,8.33,3.32c0.07,2.61,2.37,15.49,4.45,14.99c-1.62-8.03-2.31,8.45-4.34,5.82
					c1.41,4.08,0.5,8.71-0.45,12.82c-0.02-0.89,0.17-1.76,0.57-2.62c0.19,6-4.33,19.55-0.99,23.72c-2.4-1.98,1.59,12.02-0.24,3.81
					c1.11,4.98,2.12,10.54,1.44,15.55c-0.15-0.63-0.31-1.25-0.46-1.88c0.49,3.96,0.72,8.2,2.15,12.04
					c-0.07-1.19-0.14-2.39-0.21-3.58c-1.57,9.03-5.12,17.82-7.28,26.77c-0.12,0.04-1.1,0.82-2.21,2.81c-1.59,2.86-2.5,6.56-2.75,9.7
					c-0.59-2.16,0-3.15,1.76-2.99c1.84,3.43,2.61,7.24,2.66,11c4.27,0.14,5.82,7.13,9.63,8.78c0.03-0.55,0.06-1.1,0.09-1.66
					c1.93,4.32,1.99,9.71,2.05,14.31c-0.09-0.51-0.19-1.03-0.28-1.54c-0.92,6.23-0.1,12.73,0.21,18.98
					c3.19-3.06,14.63,7.64,11.48-4.73c0.09,10.32,11.26,10.18,14.79,17.71c0.38-7.41-13.39-2.14-16.82-6.65
					c0.79,8.18-9.97,13.97-8.76,3.39c0.89,4.79-7.69-0.64-8.49,6.33c0.45-1.9-6.31,10.84-6.44,4.07c-0.24,3.13-2.73-2.71-0.45-0.53
					c-1.7,1.98-3.61-12.8-2.75-12.64c-2.31,11.24-3.29,10.39-2.13,9.26C566.33,513.4,564.8,511.75,565.14,519.23z M555.79,323.43
					c-5.51-1.23-11.2,4.74-12.33,8.81c0.5-3.48-5.22,4.33-5.16,3.84c-0.35,0.81-1.18,13.24-1.54,11.31
					c0.39,4.66-0.3,9.44,0.78,14.04c-0.83-3.14-8.15,4.84-8.63,7.76c0.43,3.06-7.37,8.56-7.7,6.7c0,4.69-2.04,9.14-2.16,13.84
					c0.24-0.94,1.66,10.44,0.86,12.34c0.63-1.54-11.77-1.8-12.34-3.09c4.23,3.12,8.32,7.58,9.48,12.29
					c-2.41-3.91-11.7-2.1-14.29,0.86c-0.61-3.77,6.93-1.22,6.55,4.15c0.03-4.37,3.66,7.22,3.2,3.49c0.83,1.83,12.33-3.42,12.48-1.72
					c0.82,0.28,1.82,10.68,2.16,13.52c-0.03,0.37,7.37-10.97,7.06-6.38c0.3-5.15,2.36-11.4,5.15-16.02
					c0.3,3.52,4.91-13.03,5.01-7.66c-0.33-6.28-1.44-12.52-2.23-18.77c-0.02,0.37-1.82-9.43-1.67-11.85
					c0.39-2.44,4.15-12.44,6.7-11.08c1.1-5.31,4.21-11.71,8.25-15.92c-0.72,1.73-7.07-9.79-6.67-9.32
					c-0.28-1.63-4.96-14.54-4.85-11.85c-0.89-0.31,5.4,0.93,6.03,2.02c-0.15-2.76-2.24-7.79-2.15-11.48
					c-0.41-1.14,0.59,7.14,1.27,11.18C548.05,320.25,555.67,320.12,555.79,323.43z"/>
			</g>
			<g>
				<path class="st0" d="M649.15,469c-2.31-10.13,9.73-8.64,8.53-0.89c0.74-4.97,6.99,8.81,6.49-0.41
					c0.31,9.39,10.03,4.18,9.67-3.28c5.07-1.52,10.03,5.68,10.49,9.45c1.33-4.03,5.33-2.88,6.75,1.98
					c-1.04-7.73,7.65,6.43,6.83,1.23c1.42,6.58,10.99,0.55,13.29,6.19c-1.72-7.84,13.34-2.52,11.99-12.36
					c-3.69,5.78-3.3,17.9-5.87,25.58c1.15-4.92,12.62,2.85,12.48,4.04c-3.09,4.11-6.43,8.05-6.61,13.12
					c1.47,4.09,8.39,12.36,6.59,1.99c1.28,4.04-11.11-2.34-11.3-5.19c-0.1,4.91-11.14,8.6-12.13,2.69c-7.22,0.7-16.1,2.52-15.94-6.9
					c1.45-0.32-11.33,9.01-12.04,4.63c2.94,9.66-9.69,4.08-13.69,2.4c-1.9-3.08-12.39-10.1-9.46-1.13
					c0.54-12.28-15.9-5.72-15.5,3.98c-3.14-3.96-12.66-4.5-15.8-0.49c0.59,2.2,0.63-2.72,0.8-3.65c0.49-2.78,0.7-5.56,1.46-8.3
					c0.65,0.29,0.8,0.83,0.44,1.63c0.37-6.27-0.86-12.46-0.4-18.7c-0.11-3.39-8.77-0.41-8.64-2.61c-1.45-2.91-4.04-14.2-5.99-13.71
					c-0.03-3.16,2.85-4.9,2.52-11.63c-0.35,1.67,6.95-0.18,5.37-0.96c1.37-7.43-4.05-14.73-2.83-22.47
					c-1.41-0.32-8.51-10.48-7.49-7.34c-0.39,4.21,8.32,1.69,8.08-5.75c0.35-3.39,6.87-17.26,6.81-6.47
					c0.43-5.88-1.12-12.53-3.57-18.03c-0.49-4.96,0.26-10.04,1.52-14.88c3.87-3.2,7.25-8.08,7.22-12.78c-0.56,1.94,0.07,3.2,1.9,3.8
					c4.32-2.95,5.82-9.25,5.3-13.71c0.61,1.06,0.51,1.61-0.3,1.65c-1.39-3.94-2.69-9.15-1.77-13.2c1.06,1.46,0.41-0.8,0.72-3.22
					c0.52-3.98,0.44-8.13,0.25-12.12c0.75,2.26,1.41-9.65,1.66,0.04c-0.52-6.41,6.94-11.83,6.97-18.93
					c-0.31,0.85-0.63,1.71-0.94,2.56c-3.15-1.75-2.86-7.83-2.95-11.12c-1.72,6.08-5.3-1.46-6.16,1.01
					c0.39-6.89,3.64-13.2,4.46-20.02c-1.23,1.85,2.22,0.43,2.45-11.8c-1.07,5.59-9.11-3.24-11.2,5.75
					c-0.05-2.38-5.3-21.45-9.84-16.85c0.49,7.34,14.27-1.78,15.04-5.87c3.71,6.56,8.97-8.07,8.77-10.12
					c0.81,5.66,4.35,11.29,9.39,15.12c5.39-3.24,14.73-4.69,16.5-10.9c0.26,5.5,0.76,11.34,2.82,16.6
					c-1.25-2.68-3.58,8.59-2.77,0.68c-0.16,4.85-0.05,9.7-0.22,14.55c0.16-0.59,0.32-1.17,0.49-1.76c5.1,2.68,5.83,11.97,4.9,16.34
					c2.01-3.84,8.27,3.47,8.51,6.49c1.1,0.47,1.62-2.67,0.86,7.98c0.05,0.26-2.96,2.34-2.39,5.81c-1.61,5.46-0.15,9.93-2.32,0.31
					c-0.09,4.62-4.41,13.29-4.39,15.58c-1.53,0.93,1.1,10.38-0.14,10.74c1.35-0.28,1.26,4.99,0.28,4.65
					c-0.16,5.17-2.01,12.4,0.53,17.17c-1.66-4.13-9.66,3.58-8.02-0.07c-0.62,3.57-12.99,21.42-12.51,9.76
					c0.73,4.44,0.44,8.97,0.27,13.43c-0.04,0.93-0.68,8.26-0.18,5.48c-0.18,5.49,2.08,9.45,4.43,14.31
					c-1.83,3.7-3.13,9.35-6.57,12.01c-0.06-0.52-0.12-1.04-0.17-1.57c-2.26,4.29-3.57,9.61-7.71,12.83c-1.1-0.6-1.54-1.52-1.31-2.75
					c-0.18,6.78,4.54,12.33,4.86,18.78c1,4.66,1.14,13.17,4.49,16.15c0.72,4.8-7.44,5.13-6.67-3.13c-0.3,2.78-0.32,5.45,0.81,7.89
					c2.35-4.47,2.55-10.29,2.36-15.11c2.02,6.27,4.42,11.29,4.32,18.18c0.1-3.55-0.28-8.61-4.04-10.63
					C648.79,464.7,648.51,466.78,649.15,469z"/>
			</g>
			<g>
				<path class="st0" d="M762.03,260.36c-2.28-8.35,10.39-0.79,9.55-5.02c-0.06,4.37-8.05,7.6-11.84,5.64
					c0.41-7.59,8.5-4.15,8.15-0.56c-0.94-1.83,0.94-8.27-1.43-9.5c1.42,5.49,13.34,11.06,10.82,1.53
					c-0.37,6.65,12.98,4.39,11.11,13.51c-0.55-7.34,5.21-13.01,12.76-15.83c-1.31-0.94,10.59,0.66,8.96-7.68
					c-0.92,1.64,9.45,12.36,9.25,9.57c3.99,4.45,10.2,10.07,10.88,15.61c0.1-5.44,8.62-8.96,10.96-3.15
					c5.53-1.78,11.57-3.34,11.77-9.31c5.86,4.75,10.19,15.19,9.98,22.13c-1.74-12.14,14.41,4.22,16.65,5.57
					c-0.79-0.44-4.65,8.31-4.15,9.08c9.7-1.82,19,9.47,18.32,16.78c0.16-1.97-0.52-4-1.94-5.36c-1.74,1.89-2.53,4.29-3.28,6.63
					c-0.23-0.59-0.22-1.2,0.02-1.83c-3.45-0.62-2.08,12.4-1.75,15.64c-1.68-3.68-3.6,6.08-3.37,3.43
					c-0.05,6.08,1.06,12.22,1.22,18.32c1.21-7.49,0.73,6.38,1.47,7.58c0.69-1.39,1.91,0.68,0.47-2.77
					c1.24,0.19-2.2,11.03-4.66,10.78c1.26,1.06-7.23,5.68-5.36,11.13c-0.61,3.71-2.74,9.08-7.13,10.38
					c-1.14-2.04-1.29-4.18-0.45-6.44c-2.47,7.11-4.34,13.55-4.2,21.07c-2.05,0.65,0.55,2.16,2.53-1.06
					c-0.74,2.88-2.39,11.59-2.17,12.39c-0.38,7.13-5.08,16.86-10.5,22.07c1.36,2.92-6.33,14.42-3.91,6.84
					c-1.64,1.48-0.73,13.75-1.5,14.4c-0.17,2.75,0.54,15.54,3.15,13.45c0.61,8.28-3.1,16.43-1.63,24.74
					c0.65-1.58,0.29-2.79-1.07-3.63c-3.54,3.53-3.79,8.95-3.46,13.4c-0.59,1.96,3.3,9.23,2.26,4c2.29,5.19,3.59,11.75,7.81,16.07
					c0.7-0.68,0.88-1.51,0.53-2.48c-0.83,1.52-9.52,15.18-9.21,6.4c-1.45,2.11,0.93,12.66,0.52,13.34c0.93,5.35-11.5-1.34-9.16-5.09
					c-0.32-4.51-3.03,8.55-1.7,2.44c-1.5,0.47-11.65-0.51-11.94,2.42c0.32-3.11-8.28-2.72-9.15-8.88c1.41,7.77-8.79,4.63-12.32,8.8
					c-4.03-4.37-11.14,1.17-10.79-9.53c1.66,7.91-3.28-4.78-5.19-6.7c1.6,0.12-8.78,0.4-10.26,5.66
					c2.98-12.08-10.31-3.83-12.05,2.62c0.97-6.77-10.87-0.01-11.56-7.41c1.48,1.48,0.62-0.93,0.95-3.07
					c0.5-3.22,0.46-6.56-0.23-9.74c0.26-2.09-1.31-7.51-3.46-10.02c-1.23,0.19-1.74,0.94-1.53,2.25c0.43-5.59-0.31-14.45-4.27-19.15
					c-0.09,0.49-0.18,0.97-0.27,1.46c-1.15-7.96-3.04-15.55-2.93-23.6c-1.4,2.38,3.71,2.13,2.36-7.07
					c1.79-6.28,4.63-16.69,10.38-21.07c-0.15,2.42-0.47,4.43-1.91,6.38c-3.14-2.42-3.44-8.71-5.61-10.26
					c0.9,4.1-2.45-14.61-2.57-8.3c0.95-4.25,3.49-15.62,7.83-17.44c-2.29-1.44,1.03-8.23-0.99-10.67
					c5.67-1.96,6.47-13.56,9.04-18.48c-1.09,6.53,8.01-1.44,7-6.9c-0.44,3.07,0.88-4.4,0.56-2.05c1.06-6.93,2.77-13.75,3.21-20.74
					c-0.86,4.58-6.58,4.71-6.41,0.02c2.42-5.51,2.52-12.23,2.8-18.06c1.32-0.3,3.21,0.52,2.51,2.1c-0.5-6.56,5.31-9.94,5.88-15.84
					c1.49-3.16,5.13-9.53,3.77-11.1c-0.58,2.47,1.22-3.63,2.84-5.13c-0.19-4.73-2.54-9.39-4.83-13.65c0.8,3.84-0.85,5.82-4.39,4.74
					c-4.22-1.29-4.46-10.23-4.28-12.83c0.23,0.21-7.38-0.36-5.45-2.65c-1.71,2.89-5.93-6.76-4.58-8.23c0.2,3.75,5.79-0.6,4.46,3.82
					c-0.65-5.76,3.68-9.85,3.45-15.43c0.16,2.26,0.12,4.72-0.58,6.82c-0.16-2.18,0.17-4.4,0.97-6.5
					C768.14,259.16,760.16,258.92,762.03,260.36z M803.29,479.97c-1.3-6.82-0.14,10.64-0.62,7.27c0.23,5.28,1.54-1.47,2.76-2.56
					c0.23-6.18,4.96,2.42,4.76,5.32c-0.54-1.48-4.06-10.01-5.41-10.99c4.18,6.64,15.5-3.5,15.46-8.05
					c-3.2,2.16-12.23-8.23-12.29-0.64c0.15-6.68,3.2-13.8,8.71-18.7c-5.13-2.78-10.47-5.96-11.89-11.28
					c-0.52,1.26,9.83-5.99,9.71-8.21c0.83,1.26,6.47-2.27,5.2-1.56c0.1-3.93,1.05-10.1-2.65-12.69c2.96-6.26,3.64-14.29,3.85-20.95
					c1.15-0.35,8.02-6.44,7.47-2.26c-0.41-7.62,6.97-7.22,13.15-7.35c-0.36-5.27-0.15-10.72,0.57-15.96
					c0.34-1.38-1.87-16.52-2.19-6.77c-2.02-7.55,6.22-7.06,7.46-12.73c-0.43-2.67,6.37-8.24,7.42-1.15
					c-0.95-2.53-3.2-9.76-3.07-11.54c-0.08,3.35-5.04-11.36-4.96-2.41c0.69-4.9,5.83-9.33,6.25-8.58c2.14-4.54,5.12-9.62,5.19-14.57
					c0.71,0.09-6.93-3.9-8.33-3.98c0.71,0.62-4.82-8.13-3.76-4.89c-0.19,3.44-0.88-3.19,0.41-11.67c-4.52,2.1-10.56,4.25-10.81,9.24
					c-3.95-2.9-7.47-7.87-7.99-12.31c-0.57,1.97-4.11,6.06-3.73,3.98c-0.84,5.64-3.95,11.65-7.38,16.54
					c0.77,1.51-2.67,12.24-1.3,8.26c-0.49-2.2-3.01,14.83-3.16,12.01c-0.35,0.32,0.44,14.55,1.52,11.48
					c-1.26,5.93-6.28,11.05-6.42,17.19c-3.87-4.43-8.89,5.51-9.05,8.82c-0.34,1.18-3.31,10.62-3.9,7.35
					c0.59,5.21,0.63,10.49,0.79,15.73c0,0.58-0.01,0.23-0.05-1.04c-1.71,4.33-2.77,10.32-6.24,13.78c-0.11-0.47-0.21-0.95-0.32-1.42
					c-0.83,1.5-8.35,10.09-8.59,10.6c0.49,3.96-0.2,15.45,1.13,12.64c-0.18-3.36,4.18,8.91,4.94,4.29
					c-3.72,4.78-6.92,10.8-8.68,16.31c0.2-2.38-3.83,11.25-4.33,6.66c0.33,5.99,1.98,12.24,0.88,18.22c-0.28-3.46,10.7,6.01,10-4.68
					c0.94,5.92,0.24,14.32-0.84,12.93c0.91,0.08,7.33-1.74,6.48,2.13c0.81-9.97,5.38-1.97,4.73,2.69c0.4-5.9,10.84-1.32,9.93-7.93
					c0.08,3.76-1.4,11.1-2.23,8.42c0.78,2.18-0.61-9.59-1.66-3.39c0.5-5.4,5.6-1.77,5.52,2.74
					C805.49,479.3,802.23,478.8,803.29,479.97z"/>
			</g>
			<g>
				<path class="st0" d="M1035.73,282.32c-2.44-13.04-2.16-2.42-2.01-3.33c-0.73,4.49,1.03,4.94,3.68,3.85
					c3.28-1.35,3.19-11.51,3.17-13.68c-3.11,3.34-5,10.5-6.93,12.55c-0.35-2.03,10.1,5.2,10.4-6.17c0.82-0.93-5.67,10.54-5.1,6.5
					c-0.9,5.85-0.69,12.09-0.13,17.97c-1.78,6.56-8.96,8.41-10.94,6.74c1.38,8.06,4.06,16.2,3.85,24.39
					c-0.02-1.38-0.02-2.8,0.15-4.17c0.24,2.28,0.45,4.57,1.01,6.8c0.72-0.94,0.81-2.3,0.91-3.62c-0.62,5.04-1.4,9.3,0.12,14.23
					c-0.6,3.52-2.47,9.86-6.33,11.32c-0.14-0.7-0.29-1.39-0.43-2.09c0.53,8.69-8.33,2.9-8.27,9.95c1.45-5.7-8.02,1.95-5.92,7.31
					c0.18,3.47-7.49,13.57-10.22,6.43c0.29,6.49-1.01,12.96,1.32,19.29c-2.66,5.22-6.91,10-8.06,5.95c-0.53-8.41-6.47-1.94-9.34-5.2
					c-2.15,6.57-7.16,12.69-6.47,19.8c-2.25-1.37-3.56-7.82-4.56,0.97c0.1-1.2,0.19-2.4,0.29-3.6c-3.84,3.12-3.69,9.47-4.06,14
					c0.28-4.5-9.05,3.63-8.48,2.22c-3.33-4.3-12.5-0.98-10.3-9.63c-0.43,7.55,1.12,13.68,2.38,20.9c-1.54,3.38-4.19,10.88-3.07,2.64
					c0.36-1.83-3.3,4.91-2.64,8.15c-2.19,5.86-6.63,10.37-5.34,17.09c-0.37-0.52-0.74-1.04-1.11-1.56
					c-4.19,3.35-3.68,9.04-3.9,13.63c1.72,3.69,6.79,5.72,6.14,11.43c0.26,1.84,1.09,5.9,1.37,13.61
					c-2.75-9.18-10.89,7.21-10.52,10.73c-0.32-3.29-0.34-9.15,5.06-8.34c2.51,0.38,4.03,2.44,3.97,4.14
					c1.16,6.76,3.52,12.03,1.38,9.6c3.4,4.43-1.95,16.12-3.41,20.68c0.8,0,8.72,5.73,7.44-2.27c0.39,6.09-4.55,10.37-2.49,16.68
					c-0.66,1.28,8.5-0.81,8.25-3.63c4.6,9.65-10.7,8.25-10.67-1.51c1.22,5.22-3.4,12.27-7.37,16.12c-2.58-9.99-8.49-17.25-8.1-27.84
					c-1.39,8.52-14.46,19.71-15.76,4.47c0.81,4.52,1.23-4.52,1.24-2.2c1.87-2.58,2.06-16.4-1.08-20.12
					c0.21,2.64,3.25-8.55,3.89-12.31c0.77,4.33-0.13,6.69-3.66,5.26c-3.56-1.44-4.17-11.32-4.31-13.83
					c0.13-4.51-2.73-9.41-4.81-13.43c1.43,7.63,0.36,0.86,0.49-2.81c-0.84-2.71,4.81-12.83,6.4-6.22
					c-0.34-8.37,1.32-16.71,0.94-25.09c0.4,3.61,1.9,5.86,3.13-6.1c0.06,1.22,0.16,2.43,0.3,3.64c-0.06-6-0.41-12.02-0.94-18
					c-0.36,1.09-0.21,2.06,0.44,2.92c2.84-4.71,3.59-11.15,4.32-16.32c0.31,2.37,0.47,4.75,0.47,7.13c-1.85-3.88-2.6-8.8-4.41-13.01
					c1.63,8.32,16.03-9.26,18.79-10.93c0.14,0.86-0.2,1.46-1.02,1.79c-6.06-4.21-10.59-17.67-10.49-23.96
					c4.03,2.86,13.42-8.7,14.68-11.8c-3.96,1.43-12.42-8.62-14.57-5.44c2.37-4.44,3.08-12.28,7.34-15.76
					c0.39,1.09,0.49,2.21,0.31,3.36c0.18-6.85-5.27-13.03-5.29-19.99c-0.47,9.37,3.74-9.64,4.74-5.99
					c-2.09-8.34-11.25-13.2-17.08-19.52c1.43,5.34,0.97-6.36,1.27-7.45c-0.13-3.42-7-16.42-10.61-11.48
					c-0.18-2.95,1.58-15.87-0.87-16.04c1.06-0.71-10.45,1.1-11.06-1.13c0.06-8.07-10.76-3.63-7.24-13.39
					c-0.91-0.74,12.49,7.03,13.98,4.26c0.16-5.82,10.64-4.63,11.65-5.91c1.09-0.32,9.53,11.44,9.59,4.31
					c1.17,8.22,12.44-0.29,15.87-2.74c-0.14,6.04,1.72,15.75-1.74,20.74c2.7-1.09,5.01-4.06,4.38,1.23
					c-0.58,6.13,4.64,10.04,6.34,15.62c0.06,0.48,6.64,3.21,7.22,9.82c-0.28-0.31,6.54-0.4,4.88,2.96
					c3.61-6.07,9.66,5.26,10.51,7.35c-2.67-1.69-4.08,11.81-2.61,14.94c0.53-5.74,0.06,12.22-0.61-2.94
					c0.28,4.39,0.23,12.45-4.2,15.57c-1.11-1-1.5-2.23-1.18-3.68c-0.83,4.33-0.61,11.21,3.49,14.29c0.46,4.1,5.36,8.31,5.57,10.41
					c0.42,3.2,10.01-2.86,11.61,0.35c0.05,0.53,0.1,1.06,0.16,1.59c4.02-1.73,6.01-9.08,10.54-8.87
					c-2.21-7.22-6.16-13.51-4.45-21.26c-2.85-4.37,4.09-6.87,3.91-8.19c2.46-5.93,9.04-10.28,10.26-16.7
					c2.09-4.24,3.67-9.27,2.21-13.99c2.26-0.98-0.26-10.87-1.03-0.36c1.32-5.33,1.05-11.58,0.55-17.01
					c0.23-3.79-5.85-10.07-3.79-8.14c0.16,5.49,5.82,11.75,12.15,13c1.12-5.71,8.28-9.41,9.79-15.69
					c-0.96,10.46,4.65,1.9,4.54,11.65c0.17,7.31,7.69-6.72,9.11,0.97c-1.69-7.37-1.47-4.44-2-4.16c0.3,0.98,0.36,1.96,0.18,2.93
					c-0.57-3.85-1.06-7.84-0.55-11.7c0.49,1.47,1.63,15.35,4.28,13.16C1035,276.82,1034.39,276.29,1035.73,282.32z"/>
			</g>
		</g>
		<g>
			<g>
				<path class="st0" d="M270.97,772.04c-1.51,2.82-1.45-1.29-2-3.01c-1.43-4.41-1.43-9.59-0.94-14.11
					c-0.75-2.09-12.93,8.2-11.95,4.57c-0.23-5.67,3.91-10.41,4.52-15.9c-3.56,3.4-8.53-11.8-11.47-6.34
					c0.93,0.49,1.14-13.5-0.13-4.74c1.59-5.9-0.8-6.47-4.59-3.77c-3.51,2.5-4.99,8.98-4.34,12.65c-3.9-6.04-11.23-12.92-11.85-20.02
					c-2.05,10.59-6.25,20.56-6.35,31.46c-0.41-7.84-4.58-10.4-12.16-9.15c-3.44,4.26-4.25,10.07-4.75,15.12
					c0.69-11.16-8.94,8.12-10.75,10.03c-0.51-0.53-0.62-1.16-0.34-1.89c-0.34,3.35,5.18,15.64,9.11,13.16
					c0.5-0.6,0.53-1.05,0.08-1.34c-1.46,4.13-2.91,14.02-6.67,15.27c-0.34,0.71,14.42,5.38,13.02,3.14
					c0.33,4.75-6.23,18.96-11.96,16.97c1.33,7.2,5,2.01,5.3,3.03c-0.72,7.04-12.67-2.25-11.47,3.98c-0.34-2.36,0,8.94-0.01,3.92
					c-1.42,13.76-8.08,8.12-6.43,7.09c-1.84-5.51-15.72,13.49-13.18,1.09c-1.97,1.42,0.49-3.2,1-4.84c1.02-3.25,1.96-6.69,3.8-9.68
					c1.32-1.48-4.96,1.25-4.41-10.96c0.02-5.84,2.64-12,3.84-17.74c-5.04-2.31-5.63-7.88-4.67-12.37c0.26,5.88-3.47-8.96-4.83-3.16
					c-0.04,0.83-0.27,1.61-0.67,2.35c-0.73-3.13-0.54-6.45-0.52-9.68c0-0.34,0.5-8.56,0.09-5.64c0.13-5.63,3.08-9.94,4.23-15.25
					c1.39-5.16,8.43-13.57,10.55-20.21c-0.83,3.94,3.84-15.21,2.91-7.87c0.29-6.93-1.87-13.71-0.97-20.64
					c-1.81-6.66-3.89-14.97-1.83-21.72c0.01,1.72-0.44,3.93-1.2,5.51c-0.41-3.6-0.57-8.42,1.18-11.75c0.2-4.5,2.79-10.35,6.73-13.34
					c-0.29,0.99-0.07,1.8,0.67,2.44c1.4-2.57,2.58-9.63,3.5-9.2c1.24,1.61,5.73-7.7,5.18-11.35c-0.65-1.71-5.6-13.94-4.84-11.28
					c2.8-0.98,6.71-9.99,9.74-11.14c-1.39-6.15-7.66-5.97-11.75-9.94c-0.18-4.22,2.48-9.88,6.3-11.36c0.88-0.74-9.84-3.89-9.29-3.85
					c-0.68-0.24-7.98-3.39-8.38-8.88c1.28,8.15,12.41-0.43,13.16-4.67c0.35,10.11,2.59-6.52,1.61-4.8
					c1.21,3.17,10.68,9.96,11.21,7.87c-1.67-5.09,7.81-9.91,8.24-6.34c-2.21-2.62,7.31-1.65,6.96-1.91
					c2.08,7.73,8.04,5.25,7.77,0.21c0.82-2.97,1.96,9.58,2.73,9.83c0.49-1.5,9.62-2.74,11.48-0.94c0.92,2.2-7.28,5.47-6.42,4.91
					c1.61,3.91,15.68-1.84,14.47-1.3c1,4.21,2.63,2.96,3.83,9.31c0.44,1.52-1.06,0.91-2.1-1.87c0.6,1.87,9.1,6.37,9.32,8.64
					c-1.55-1.97,11.28,4.94,6.99-2.31c3.06,7.11,1.97,11.09-1.47,5.9c2.26,0.32-0.86,8.91-0.56,10.88c0.29-3.06,8.16,0.66,8.57,5.08
					c-0.3,4.91,4.89,5.73,5.05,4.69c0.22-5.65-2.48,0.27-1.97,3.22c0.07,8.39-3.59,4.02-3.31,9.22c0.33,6.74,3.95,12.69,3.98,19.58
					c0.94-0.94,4.4,6.55,6.23,6c-2.65,3.27-3.85,8.78-5.06,13.1c-2.72,5.42-5.5,10.83-4.65,17.07c-1.1-0.87,4.37,5.38,4.47,6.95
					c7.43,0.99,12.04,6.27,12.62,12.51c-4.07,1.81-3.75,8.47-3.92,12.59c-0.71,1.33-1.22,5.34-0.63,8.9
					c-0.02,2.35,4.7,13.55,5.61,3.55c-1.63,8.62,8.81,9.38,10.22,16.62c0.64-6.83-6.05,4.07-6.1,7.17
					c-0.27,0.08-3.63,12.94-2.53,6.09c-0.55,4.25-7.18-6.76-8.7-1.24c-0.64-6.55-3.09-2.44-5,0.78c0.22,0.31-11,6.5-9.62-4.24
					c-0.99,4.71,1.33,3.32,0.82,1.8c1.22-2.11,1.63,6.83,2.05,6.39c0.77-2.52,3.13-14.94,3.53-6.08
					c-1.98-9.01-10.45,0.42-10.82,4.65C267.38,769.3,272.63,774.73,270.97,772.04z M234.11,607.98c0.21,1.47,0.28,7.82,0.28,5.43
					c-0.36-0.55-6.44,9.99-6.23,9.02c-0.63-0.88,3.26,7.1,2.87,6.88c0.06,1.81,1.91,4.55,1.74,6.78c0.33,0.18-4.02,8.63-4.42,11.41
					c0.61-4.73-7.67,4.13-6.85,6.49c-0.53-1.11-2.31,6.94-2.21,5.51c1.38,5.08,3,10.13,3.39,15.35c-3.01-3.01-7.35,6.74-8.97,9.31
					c-3.65,4.11-7.46,8.38-8.69,13.51c1.41-5.98,9.54-5.91,12.08-10.88c-0.54,1.83,4.89,12.53,4.56,10.93
					c2.26-4.89,7.43-8.82,8.97-13.88c-0.11,0.21,5.99,9.18,5.52,8.1c0.4,2.43,3.71-3.21,3.4-5.53c0.45,3.11,3.26-11.57,3.35-11.1
					c0.01,3.08,7.89-10.99,8.69-7.87c-0.12-0.96-6.72-9.37-6.74-11.26c-0.4,4.89-6-4.76-5.48-4.82c-0.06-3.27,3.19-8.49,3.11-13.29
					c-0.74,1.43,8.58-7.65,8.95-7.56c0.4-0.22-11.02-1.36-11.31-4.28c-0.3-0.02-5.86-6.03-5.83-6.68c-0.09-0.37-1.05-5.09-1.27-7.59
					c0.41,1.16-0.24-5.61-0.39-4.63c-0.06,1.88-2.26-2.49-1.94-1.23c-0.38-1.83,1.05,5.21,1.03,4.39c-0.72,0.5-0.56-2.6-0.54-3.41
					c-0.07,0.72-0.83,5.68-0.78,7.15C230.27,612.79,234.82,608.69,234.11,607.98z"/>
			</g>
			<g>
				<path class="st0" d="M399.34,732.79c0.02,1.46-0.38,2.82-1.2,4.06c-2.53-1.69-2.94-8.7-5.56-6.35c1.86,1.1-1.87-13.4-2.02-7.69
					c-0.56-5.6-7.25-6.32-11.01-9.84c0.98-4.16-9.07-2.24-10.22-6.45c-0.35-4.02-0.97-8.19-2.41-12.03
					c-0.28,1.57-0.23,3.15,0.16,4.73c0.86-6.3,2.3-12.52,2.8-18.86c-0.11,0.55-0.23,1.11-0.34,1.66
					c-5.23-1.05-9.14-10.41-10.27-14.3c-0.37,9.72-6.73,0.44-8.68,0.56c1.51-6.22,7.1-15.53,4.98-21.85c1.39,8.5,0.82-12.2,0.51-3.5
					c1.46-1.17-1.64,12.49-2.08,2.52c-0.49,7.27-12.77-3.04-10.8,4.15c1.33,5.75,7.93,4.79,5.79,13.21
					c1.95-5.16-9.72-3.9-11.32,0.33c0.32-1.44,9.34,0.74,8.45-2.87c-4.69,2.47-7.97,11.9-12.66,12.63
					c-1.14,6.28,7.63,10.51,7.68,6.81c0.84,2.98,6.55,12.55,6.43,8.78c-0.63,7.31-2.77,13.96-2.52,21.43
					c1.04-3.49-8.41,2.95-6.06,2.33c1.2-4.23,6.01,11.79,8,3.1c-0.34,8.39,6.53,7.88,4.71,12.18c0.02-0.66,0.11-1.3,0.25-1.94
					c-0.46,4.94-0.85,9.93-1.75,14.82c1.15-7.25,0.45,5.87,0.96,0.19c-2.72,6.21-9.51,0.8-9.11-3.95c-0.6,2.9-2.04,12.99-4.67,12.7
					c1.54,9.59-6.18,1.08-6.52,0.7c-1.11-4.06-11.58-6.56-11.36-5.04c-1.98-4.55,0.95-10.37,2.87-14.71
					c0.38,0.45-3.66-7.35-2.24-11.74c0.06,6.43-0.47-8.25-1.72-5.53c-0.45-2.92-1.8-10.68-5.35-12.67c-0.17,0.5-0.35,0.99-0.52,1.49
					c-1.27,2.9-0.84-2.49-1.08-3.95c-0.84-5.13-1.01-10.4-1.46-15.57c-0.13,1.02-0.27,2.04-0.4,3.05
					c-3.29-2.67-3.59-8.07-3.52-11.96c1.38,3.22-1.49-8.97,0.58-4.64c-0.91-2.27,7.3-2.06,6.12-2.25
					c2.72-8.18,2.82-16.91,4.39-25.27c-1.61,6.77-5.4-7.97-5.28-3.03c0.76-2.85-3-12.51-0.9-12.23c-0.19-2.88,0.47-3.72,1.02-4.55
					c-2.15,1.24-1.64-12.93-0.21-4.41c-2.32-7.74,4.24-7.52,4.72-10.17c-0.61-1.39,5.48-3.31,4.02-7.78c-0.2,0.2-9.29-4.97-9.4-5.09
					c1.13,6.62,5.89,0.42,4.23-4.7c-1.09-0.3-7.33,1.84-5.53,4.46c-2.37-6.18,6.11-5.69,6.97-8.74c-1.25,6.69-11.98-1.88-13.39-5.17
					c0.52,7.65,9.8-1.44,9.59-5.34c-1.76,4.44-10.29,2.06-14.03,5.17c1.29-5.3,7.51-8.51,6.78-14.41c0.39,6.1-13.53-0.13-15.19-2.89
					c1.85,9.45,10.58,1.76,11.83,1.94c-2.39-2.44-12.74-8.36-15.64-5.66c-0.62,2.61,4.13-6.91,5.16-8.86
					c-0.23,6.65-10.61,5.25-14,1.53c3.07,8.08,11.23,1.07,9.7,3.3c-0.42-7.36-6.46-13.07-7.25-19.74
					c-1.05,10.53,7.13,6.74,11.97,11.86c-0.17,2.09,5.6-9.9,4.98-11.67c1.16,2.02,8.26,13.95,9.35,6.62
					c-0.06,8.87,8.79-1.81,7.97-6.99c1.11,8.29,5.41,9.05,5.14,8.77c0.74-0.63,5.35,8.86,6.98,11.34c5.21,1.15,9.89,4.03,14.55,6.27
					c-0.85-5.28-0.28,1.73,1.38,6.21c-0.79-1.09-8.01,1-8.02-0.59c0.63,4.14,6.45,12.99,11.5,10.17c1.41,4.74,7.03,3,9.39,8.57
					c0.26-2.76-5.43,1.72-6.43,5.59c-0.71-0.95,0.71,4.24,1.62,4.68c0.24-3.96,4.74,8.59,2.91,3.74c1.04-1.15,11.08-4.37,11.26-5.68
					c-1.17-0.87,1.9-0.61-0.77-4.09c1.37-2-2.07-6.55-0.83-3.24c-0.54-4.53,5.78-7.1,6.49-4.61c-0.24-4.56,6.45-5.04,4.87-12.53
					c0.85,6.78-2.08-0.01-3.08-6.64c0.81,6.01-6.62-5.2-4.84,1.72c-2.98-7.07,7.01-6.63,8.88-11.37c0.15-5.99,9.37-5.85,8.32-13.52
					c-0.54,3.13-7.29-9.6-5.51-7.13c0.51,6.71,5.86,11.28,9.83,16.67c-1.64-4.25,7.14-10.82,7.4-6.87c-0.3-7.31,5.15,2.58,6.42,3.65
					c2.56,0.77,6.71-12.28,7.16-15.49c-0.26,5.34-0.48,10.69-0.77,16.03c-1.62,0.59,8.04-2.93,8.2-9c-1.84,4.91-8.98,5.33-9.35,11.5
					c-2.04-7.15,9.57-6.72,13.04-10.05c0.12,3.73-8.59,16.17-13.16,9.78c0.11-1.94,11.9,2.8,11.21,7.71
					c1.25,1.25-10.36,3.08-9.25,6.53c1.47,2.8,10.27,6.48,10.37,7.35c-1.96,2.66-11.97,3.1-12.05,2.5c1.79,5.2,5.62,9.91,7.36,14.91
					c1.24-4.1-10.5,5.37-12.22-1.95c3.94,4.46,8.21,9.97,9.18,15.55c-5.41,3.19-16.86,4.33-19.55-2.21
					c1.09,7.12,5.17,11.94,6.87,8.73c-2.95,1.75-14.82,8.86-17.1,4.41c3.89,6.47,10.03,11.87,10.83,19.5
					c-2.27-11.23-9.66,4.04-8.7,2.17c1.09,7.25,6.82,11.95,11.6,17.51c-2.91,3.31-3.93,8.97-5.12,13.06
					c0.01-0.58,0.02-1.16,0.03-1.74c4.95,1.98,8.21,10.78,8.85,15.17c-0.03-1.39-0.28-2.74-0.74-4.07
					c-1.43,2.13-1.79,5.56-3.13,8.13c-0.88-0.04-1.28-0.53-1.2-1.49c1.55,9.67,17.23,9.51,20.01,17.49
					c-0.32-7.09-3.36,11.15-4.28,5.39c2.33,2.13,16.83,19.11,17.32,9.32c1.06,5.08,0.15,13.2,3.41,16.95
					c-0.12,5.52-0.02,10.41-0.64,1.31c-3.55,6.15-7.63-4.6-7.17-7.16c-0.16,4.12-1.1,10.93-5.66,13.19
					c-0.71-0.86-0.8-1.81-0.28-2.84c0.72-0.53-9.25-1.97-8.77,3.02c-0.88-2.25-5.06-1.9-5.03,9.31c-0.98-9.53-0.51-6.67,0.5-8.28
					c-2.01-5.46-1.01-5.7-1.09-7.85c0.7-2.65,0.51,0.82,0.77,2.23c0.7,3.91,0.6,8.11,0.25,12.02c-0.17-3.68,3.22-2.46,2.31-5.64
					C402.35,746.4,398.47,736.5,399.34,732.79z"/>
			</g>
			<g>
				<path class="st0" d="M571.87,615.68c0.73-4.39-10.72-7.73-10.65-3.74c2.34,1.66,7.1,11.92,4.83,7.37
					c1.77-0.31-10.43-4.02-9.77-2.78c0.22-1.19-2.81,1.19-3.24,1.93c-0.98,6.37-10.74,3.71-10.53-1.82
					c-0.02,6.81,6.38,3.33,6.83-0.71c2.03,3.19-1.08,13-0.95,10.56c-0.03,2.98,9.14,3.79,8.33-2.37c0.41,7.43-6.09,5.02-5.57,10.7
					c1.78-4.92,12.09,2.01,15.69-3.89c-0.94,4.81-17.09,18.44-17.76,8.1c1.06,3.74,8.09,20.26,11.85,18.03
					c-2.99,1.59-9.2,12.33-11.89,7.58c0.5,4.93,1.55,10.64,4.08,15.17c1.21,2.16,1.49,5.89,3.35,3.44
					c-0.75,5.17-5.48,10.2-9.12,14.25c2.14-9.48,12.42,4.62,13.21,7.35c-2.55-5.28-9.99-3.91-15.13-5.48
					c2.26,5.48,6.07,12.57,5.13,18.42c-5.01-3.3-9.89-7.73-9.35-13.61c-2.09,5.01-1.46,10.21-1.14,15.4
					c0.13-6.37-15.46-12.23-17.98-5.26c-0.48,1.12-12.42,3.06-11.51,0.7c-0.82,6.03-11,7.89-15.67,4.08
					c-5.56-1.23-11.99,6.29-12.13,10.74c0.06-9.15-13.35-10.7-15.98-18.4c-0.1,6.95-0.86,13.89-0.78,20.83
					c0.81-6.68,1.36-14.21-0.24-20.82c0.35,6.62-5.55,10.28-9.21,15.37c4.21-0.76,5.16-8.71,7.29-10.79
					c-0.95,0-10.44,5.51-10.46,2.68c2.16-3.27,10.87-9.3,13.58-3.52c-5.92-1.3-15.09-0.66-16.35-7.32c0.62-1.6,9.21-4.09,7.61-10.49
					c1.67,1.11-7.53,6.67-8.19-1.28c0.91,7.14,4.89-4.01,4.53-2.31c-2,1.88-11.21-12.06-12.75-3.55c3.62-3.52,8.5-9.24,14.17-9.61
					c-0.42-3.62-9.08-11.97-13.09-9.32c0.73-2.72,7.16-12.9,11.02-8.4c-2.57-8.11-6.81-15.2-10.66-22.89
					c1.44,3.83,3.92-8.09,3.91-9.09c0.78,9.32,6.11-7.68,4.47,3.32c0.3-3.87,0.03-10.37,3.93-12.44c-0.08,1.19-0.17,2.38-0.25,3.57
					c0.87-1.35-0.28-9.16,0.42-9.16c-0.12-5.43,0.42-13.94-0.85-7.53c0.47-3.34-1.79-4.7-3.57-11.66c0.7,4.91,9.19,1.09,8.63-0.69
					c0.08,1.13,1.86-6.73,2.74-4.37c-1.16-3.26,4.48-5.57,3.91-4.98c1.24,0.33-3.29-9.39-3.14-12.73c-0.78,3.1-8.65-5.44-10.74-5.55
					c1.03,4.12-1.84,0.26-0.97-6.71c-1.62,4.12-0.48-6.55-2.87-4.5c2.22-1.53-1.93-9.59-2.41-10.46c0.39,5,1.29-4.79,0.06-8.66
					c0.15,7.45-7.84,1.27-8.06-1.12c0.25-0.91,7.72,9.68,9.34,3.52c-0.26,2.62-9.63,5.38-7.13-0.57c-1.37,0.3,8.87,7.49,8.44,8.16
					c0.58-2.74-4.84-10.04-5.62-12.46c1.18,1.12,12.92-1.99,10.75,6.06c0.34-4.69,11.59,2.34,11.43,4.43
					c-1.17-4.64,4.52-10.78,9.24-8.5c1.5,2.14,9.64,4.21,8.04-4.08c1.11,4.97,6.23,8.35,11.37,10.44c1.39-8.63,8.82-5.77,8.35-1.72
					c-0.29-2.9,9.9-0.66,10.81-1.54c1.5-6.71,11.41-5.44,11.19,1.66c-0.99-1.81,7.62,4.72,7.87,0.29c-0.37,2.21,5.23,8.73,4.16,6.7
					c2.68,4.47,10.2,2.22,13.3,6.6c0.23-2.39,11.24,2.03,10.82-1.33c-0.41,2.69,1.81,9.07,0.7,11.49c0.13,1.8,4.95,5.41,4.82,8.89
					c1.04-2.47,4.22-0.16,5.34-0.81c1.17,6.23,4.84,11.21,3.91,8.4c1.11,1.62-5.26,7.01-4.8,3.44c-0.64,3.93-6.76,8.29-8.06,9.16
					c1.84,1.66,10.5,7.35,8.32,7.41c0.18,4.66,4.76,8.03,3.84,6.93c1.13,5.73-4.74,1.11-5.69,5.3c-1.18-5.33-2.58-9.83-1.34-9.59
					c0.38,4.63,0.11,8.67,0.8,6.52c-0.99,0-1.37-8.88,0.05-2.23C568.15,605.07,571.88,616.48,571.87,615.68z M532.97,579.81
					c0.26-1.08,5.9-7.51,5.91-6.46c0.78,0.38-12.82,1.75-13.58,0.71c0.6-0.13-4.82-6.7-4.59-6.38c0.08-0.32-10.98,1.19-11.13,1.39
					c-4.5,0.8-12.88-0.92-16.17-3.76c0.03,1.85,11.33,8.62,11.47,7.6c0.73,0.77-8.35,8.04-8.32,7.54c0.01,0.62,8.08,7.47,7.76,6.19
					c0.19,1.56-10.12,6-9.88,7.06c-0.56-0.98,13.43,5.45,14.12,4.02c-0.27,1.61-4.92,7.4-5.15,5.62c-0.21,0.07,9.35-3.15,9.61-4.33
					c-0.33-0.31,3.8,6.08,3.38,4.77c0.32,1.88,7.51-0.75,7.45-1.81c0.03,0.77,4.71,5.06,4.67,5.07c0.61-1.49-1.13-9.45-0.29-8.14
					c-0.56-0.97,13.06-3.91,12.8-4.16c0.67,0.77-9.78-4.16-10.28-3.98c0.32-0.09,10.24-5.25,10.33-6.97
					c-0.77,1.01-8.82-5.74-8.71-4.35c0.11-1.56,6.83,3.18,7.01,3.99c-0.17,0.19-1.71-5.8-1.38-6.22c-0.29,1.3,2.65,5.43,2.14,4.92
					c0.16-0.37-3.56-0.63-3.69,0.71C536.54,581.29,532.97,580,532.97,579.81z M513.49,641.69c0.26-1.79,6.24-10.71,6.24-9.21
					c0.78,0.54-12.1,2.43-12.84,0.92c0.59-0.18-2.61-9.01-2.39-8.63c0.08-0.39-9.83,1.08-9.98,1.33c0.13,1.92-13.31-3.98-12.98-5.9
					c0.02,2.07,4.03,13.5,4.19,12.04c-1.88,4.13-6.63,8.68-10.48,11.65c-0.01,1.04,7.52,13.89,7.24,11.69
					c-1.5,5.13-6.43,9-8.58,13.91c4.46,1.11,9.79,6.27,14.59,5.55c-0.3,2.68-0.29,11.06-0.49,8.25c-0.21,0.12,5.44-7.19,5.72-9.12
					c-0.32-0.51,5.89,9.02,5.47,6.96c0.3,2.95,6.41-2.4,6.35-4.09c0.02,1.23,7.51,5.36,7.47,5.38c0.62-2.26-7.63-13.3-6.8-11.15
					c-0.57-1.58,12.12-7.35,11.86-7.77c0.67,1.28-9.34-6.44-9.84-6.14c4.19-2.46,9.82-5.5,11.62-9.68
					c-0.78,1.71-6.91-9.66-6.83-7.35c0.14-2.59,6.43,6.3,6.61,7.68c-0.17,0.32-1.47-9.85-1.14-10.51c-0.31,2.05,2.61,9.06,2.09,8.19
					c0.16-0.62-3.63-1.09-3.76,1.16C516.94,644.24,513.49,642.01,513.49,641.69z"/>
			</g>
			<g>
				<path class="st0" d="M689.64,743.73c0.03-4.93,0.72-10.93-1.25-15.62c-0.81,5.6-11.99-5.44-15.07-6.17
					c0.09,1.5,7.12-6.65,8.43-2.95c-1.93-4.73-6.89-8.66-11.13-11.98c1.89-5.72,3.48-11.55,4.72-17.39
					c-1.62,4.36-11.56,8.66-15.99,5.28c-3.39-5.89-8.83-10.3-9.3-17.25c-6.23,1.24-13.09,6.7-13.23,12.42
					c-2.43-6.39-7.56-12.54-8.03-19.34c-0.61,0.99-9.61,10.47-9.86,6.33c-0.51-2.64-8.51-0.13-8.07-1.34
					c4.09,5.95,7.02,12.66,10.11,19.01c-0.01-2.99-11.93-1.8-9.33,2.44c-2.17-2.66,10.22,10.94,9.33,6.03
					c-3.38,3.74-7.74,8.66-8.43,13.39c0.3,0.74,11.4,3.46,10.54-2.88c-1.43,0.79-10.91-0.36-9.09,4.61
					c0.44-7.05,6.82,7.38,8.99-2.94c-1.18-0.29-13.88-7.67-14.16-5.46c1.74,4.61,4.46,13.72,5.07,4.54
					c-1.3,7.24-8.11-4.06-8.16,2.77c0.85-11.04-1.43,5.04-4.08,2.33c0.6,2.39-7.37-8.99-6.36-10.86c-2.22,7.35-8.56,3.22-10.52,6.72
					c-0.02-6.17,4.36-9.65,4.38-3.14c-3.33-2.63-7.1-10.06-5.83-13.87c-2.38-3.85-4.91-10.44-4.12-10.33
					c-0.59-4.51,2.1-13.48,4.32-8.02c-0.36-5.43,4.21-8.76,4.37-13.8c0.53-3.23-0.36-8.91-3.09-10.88c-0.03,0.8-0.07,1.6-0.1,2.4
					c0.82-4.79-2.56-10.27-3.7-15.1c1.59-5.18,6.28-9.01,9.7-13.18c-0.37,0.53,13.15,2.79,12.28,0.25c0.72,0.35,2.67-11.46,1.39-5.4
					c0.43-2.92,1.01-12.75,1.87-12.53c-1.72,0.74,8.68-4.14,10.67,1.06c-1.85-2.94,8.85-3.71,7-7.65c0.16,2.54,0.62-8.14,0.47-6.7
					c1.91,2.13-3.33-3.82-4.39-4.21c-0.23-2.84,5.48-13.17,8.27-6.94c-2.51-3.58,9.46-1.94,7.55-5.44c0.71,1.12-4.79-5.75-3.33-7.64
					c-0.55-2.61-5.71-9.13-4.22-10.66c0.33,0.98,2.87-8.81,5.22-0.75c-2.25-7.73,1.05-6.44,1.11-9.01
					c0.44,1.83,6.72-13.03,6.76-4.73c-0.12,0.83,10.89,6.61,10.94-0.85c-1.26,4.18,12.37,4.25,10.29,0.74
					c2.08,0.92,9.3,12.27,7.72,9.19c1.79,7.33,12.17,4.08,17.92,4.82c-1.4,0.64-4.71,1.2-4.29-1.4c-0.43,3.26,0.21,16.42-1.05,16.42
					c2.62-4.42,10.48,1.3,12.93,3.88c4.99,3.09,9.65,8.7,11.2,13.74c-0.1,3.26-7.78,1.57-7.76,7.04c-0.39-1.87-1,8.53,0,7.16
					c4.08,4.11,7.09,9.31,7.92,14.64c2.47-1.21,9.64,8.48,8.45,1.04c-4.02,3.98-7.29,9.45-9.71,14.31c1.25-3.01-2.94-2.52-4.61-3.14
					c2.99,7.66,7.47,14.28,7.6,22.56c-1.61-1.27,7.63,8.94,4.61,0c1.45,3.56,2.42,12.42-2.91,14.1c-0.07-0.53-0.13-1.05-0.2-1.58
					c-1.78,4.69-7.04,7.36-8.16,12.23c1.1,2.42,7.92,12.11,10.07,7.23c1.79,5.67,7.08,11.32,4.9,17.5c1.84-6.82-3.14,6.73-3.06,3.02
					c-0.42-2.22,3.55,12.16,3.06,12.95c3.65-0.24,8.94,9.78,11.41,13.07c3.03-1.64,8.34,6.92,8.77,10.05
					c0.83,4.63-13.18,0.78-12.57-2.14c1.07,4.62,8.67,5.06,9.16,5.2c-0.22-0.47-7.49-5.42-6.77-1.49c-1.38-8.6,4.35-0.64,4.64-4.29
					c1.23-0.84-7.43-1.27-8.01-1.51c0.81,5.04-3.18,11.81-3.93,5.27c0.98,1.91-8.38-10.41-6.07-7.5c-1.02-2.27-9.95,4.4-9.75,3.15
					c0.13,0.77,0.25,1.55,0.38,2.32c-3.77-1.64-6.36-6.63-7.3-10.59c-0.53-2.66-6.01,1.7-5.23,7c1.47-1.23,0.02,1.16,0.22,4.22
					c0.58,0.94-2.68-11.88,0-12.44c-0.48,3.15,0.84,13.87-1.65,6.16c1.65,6.81,3.29,5.15,5.89,8.22c-0.72-3.56-2.58-7.56-5.69-10.14
					C688.72,740.1,688.36,741.56,689.64,743.73z M670.6,592.06c-0.27-1.73-5.41,4.14-5.82,4.07c0.86,3.01-6.29,5.1-6.29,6.11
					c0.12,0.56,3.23,8.78,3.88,10.14c-0.94-1.98-2.28,5.97-2.06,6.05c0,0.18-8.08,3.14-7.93,0.63c-0.25,2.41-8.02,5.35-7.86,4.4
					c-0.62-1.3-3.37,8.29-3.59,5.33c0.12-0.34-0.63,7.83-0.59,11.14c-0.11-0.83-7.34,2.75-7.02,1.45c-0.21,0.4-11.51,6.4-11.61,4.7
					c-0.19-1.08,15.46,0.46,15.62-0.03c1.49,4.53,2.38,9.19,3.73,13.76c-0.01-1.34,11.13-5.55,12.14-3.72
					c-0.84-1.15,1.98,10.46,1.64,8.26c0.22-0.41,3.69,0.64,4.07,1.66c0.11,0.33,6.05-7.14,5.65-9.85c-0.53,0.34,4.49-4.07,5.27-1.95
					c0.03-3-3.59-8.86-3.16-13.07c-0.44-0.11-1.55-8.51-1.56-7.62c0.83,1.84,8.12-2.08,7.83-5.77c-0.07,2.91,4.75-4.8,5.14-2.04
					c-0.36-4.48-5.2-10.39-6.31-11.42c0.36,0.94-6.35-9.64-6.11-10.38c-0.33,2.89,4.87-6.91,4.41-5.5
					c-0.41-2.43,1.71-9.19,2.14-6.59c-0.67,0.11-5.32-3.81-4.58-3.93c-1.07-1.46,0.63,8.53,0.92,8.57c-0.5-1.76-2.1-9.24-0.98-7.14
					c-0.63-3.15-0.51,6.78-0.92,5.17C667.16,593.86,669.53,588.61,670.6,592.06z"/>
			</g>
			<g>
				<path class="st0" d="M879.68,700.42c-0.21-6.66-13.73,0.09-12.67-4.45c1.2,6.68,2.53,13.36,3.25,20.1
					c0.52-0.21-15.09-8.94-12.76-3.88c-1.02-10.37-3.59,6.3-4.26,0.43c-0.48-1.46-11.42,5-12.77-0.25c2.09,2,8.8,15.4,11.27,12
					c-5.31,3.82-6.62,13.86-4.92,19.24c-2.14-7.67,10.87,1.9,10.93,2.27c-2.02,5.55-2.05,11.85-1.48,17.58
					c-1.66-6.79,12.08,3.58,12.18-0.49c0.44,2.03-5.26,0.51-5.62,4.82c-0.47,4.67,5.14,1.91,3.5,9.42c0.14-2.42-4.3-13.93-6.7-6.31
					c1.9-0.79,8.59,7.3,7.77,0.53c-0.93,4.61-1.64-1.26-2.62-2.85c1.55,7.31-10.05,7.88-9.66,0.87c-0.7,2.21-7.3-8.02-9.29-0.64
					c2.01,1.24-5.8,5.96-7.21,5.25c0.13-4.76-3.44-8.76-4.65-13.44c0.03,6.46-12.13,3.1-11.97,11.21c0.26-4.48,0.61-15.94,5.07-18
					c-7.98,1.11-15.76-10.68-16.62-16.51c-0.26,1.5,0.28,2.62,1.62,3.36c3.81-1.83,6.41-7.66,6.61-11.22
					c-3.21-5.69-11.11-9.64-12.5-16.15c1.21,8.59,7.22-12.17,5.44-3.82c1.49,0.89-8.36-0.68-8.76-1.44
					c0.89-2.34,5.48-13.45,5.63-6.04c-2.14-9.61-10.39,2.97-10.87,6.4c1.24-5.61-0.57-8.87,1.1-10.04c-0.54-0.76-0.04,4.4-0.31,9.33
					c0.23-6.78-7.14-5.93-12.23-5.65c-0.51-6.29,11.52,4.29,11.5,9.11c-0.18-6.57-9.24-7.33-11.22-1.64
					c0.65,0.44,6.12,4.52,8.32-0.74c-1.47,9.73-10.8,5.76-9.32,7.61c-0.4,0.9,5.99,4.66,5.91,6.16c-0.43,6.77-10.25,4.95-10.02,9.41
					c1.9,6.5,8.92,6.46,10.7,9.51c0.11,2.3-4.6,13.81-7.51,10.13c-0.4,4.79,4.19,8.53,4.06,13.45c0.55-5.21-7.34-5.7-7.58-5.33
					c-0.72-1.93-2.63,2.59-2.86,9.97c-2.86-5.36-5.9-10.69-8.41-16.16c0.4-2.08-10.38,5.76-11.52,5.73
					c0.37,6.38,7.14-11.75,7.6-4.71c-5.07-5.04-13.82-7.84-17.86-13.46c0.91,0.14,8.51-11.59,8.29-5.52
					c-2.86-3.81-8.25-16.17-13.16-16.61c3.14,2.18,8.79-7,13.15-6.7c-1.14-3.48-5.83-11.25-10.64-11.13
					c0.32-4.34,6.09-13.22,12.13-12.26c0.09,0.46,0.19,0.92,0.28,1.39c3.54-2.34,5.19-8.92,4.53-12.62
					c0.18-0.74-0.21-15.87-0.29-11.75c0.59-5.1-1.55-10.52-2.61-15.2c-1.39-4.35,3.18-10.51,7.61-12.81
					c2.22,2.46,4.56-11.23,4.06-14.04c0.43,0.95,0.29,1.77-0.43,2.46c-4.32-2.66-6.32-7.48-9.84-10.87c-0.77,0.08-0.9,0.53-0.4,1.35
					c-0.47-7.32-3.22-14.61-4.25-21.91c0.13,1.28-4.36-15.57-2.28-5.22c1.92-8.19,1.31-17.7-0.34-25.85
					c1.75,11.08-7.32,2.52-6.88,6.85c-2.08-3.92,8.25,3.92,6.47-1.66c0.46-1.98-9.42-7.98-6.32,0.85c-0.78-2.82,9.56,1.62,8.81,6.15
					c-0.41-8.81-1.76-13.34-3.24-12.97c-0.8-6.98,10.06,1.61,11.51,1.5c0.28,2.69,10.52,2.78,8.78,3.79
					c2.01,5.48,9.41,6.03,13.06,10.34c2.74-2.98,5.94-11.05,10.3-11.24c0.73,4.3,9.42,10.71,8.57,10.78
					c3.63-3.51,10.93,6.03,11.82,8.64c-1.26,2.26,8.6-10.09,9.75-0.98c-0.59-5.05,4.72-13.28,11.81-9.96
					c1.3,5.66,6.87,10.27,9.43,15.61c2.9,2.58,5.57,9.9,7.46,10.9c1.69,3.76,11.51-8.39,10.65-7.73c2.61,5.79,0.26,12.19,2.79,18.19
					c-0.2-0.57-0.39-1.13-0.59-1.7c3.74,0.4,8.04,5.05,10.4,7.64c-1.79-11.78-4.36,3.47-5.91,3.04c1.71,7.09,9.53,8.6,9.87,3.77
					c-5.11,5.97-5.67,16.13-2.98,22.8c-0.67-0.99-0.95-2.01-0.82-3.07c2.87,4.94,5.14,10.71,5.79,16.19
					c0.56,2.63-8.44,8.76-8.42,11.2c2.41-2.32,3.5,8.99,2.96,11.02c-1.91,4.85-3.82,11.13-8.13,14.84
					c1.58-6.86,3.94-6.33,2.33-11.26c0.42,5.1,1.17,10.18,1.78,15.27c0.97-5.55,0.1-3.71-1.13-4.98c1.16-0.25,0.06-2.46-1.9,1.01
					C873.56,704,879.92,698.25,879.68,700.42z M825.54,679.59c-0.46-2.95,3.8,8.42,4.09,6.63c-0.12-0.33,0.48-8.4,0.79-6.81
					c0.19-0.09,2.79,9.9,3.82,11.93c-0.66-4.17,0.98-9.94,0.4-12.41c-0.27-0.61,5.95,8.58,5.21,6.41
					c-0.44-5.17-1.16-10.33-1.76-15.49c-0.61-0.22,12.56-7.21,14.12-4.03c-2.65-5.62-5.61-11.16-8.66-16.64
					c1.85-3.13,5.07-9.96,8.95-10.58c-3.8-5.54-9.47-10.02-13.18-15.59c0.37,0.78-3.21-7.68-2.9-5.91c0.31,1.92-9.88,0.1-9.71,3.23
					c-0.87-3.22-5.33-13.23-5.18-10.77c0.62-0.43-8,3.8-8.97,1.16c0.12,1.9-9.09-6.65-9.61-7.23c1.93,4.63,4.69,12.58,8.22,15.39
					c-2.1,4.78-5.16,9.3-6.29,14.35c3.22,4.19,6.18,9.29,7.99,14.06c0.53-0.87-11.58,9.3-12.58,6.71
					c2.56,5.99,7.23,11.59,8.51,17.92c-0.37-3.55-3.44,5.07-2.75,6.27c0.13,1.13,9.31-4.35,8.08-8.82
					c1.17,4.54,0.52,13.53,0.01,13.48c0.44-0.44,9.66-5.84,9.68-7.49c0.97,3.55,1.96,9.2,1.59,12.58c0.58,0.32,1.37-7.83,1.19-8.13
					c0.19-1,1.64,8.68,1.89,11.61c-1.09-2.8-2.73-15.59-2.63-11.87c0.14-2.37,6.33,4.97,6.88,4.44
					C832.49,683.71,825.51,678.63,825.54,679.59z"/>
			</g>
		</g>
	</g>
</g>
</svg>
